<?xml version="1.0" encoding="utf-8"?>
<!-- Generator: Adobe Illustrator 22.0.1, SVG Export Plug-In . SVG Version: 6.00 Build 0)  -->
<svg version="1.1" id="图层_1" xmlns="http://www.w3.org/2000/svg" xmlns:xlink="http://www.w3.org/1999/xlink" x="0px" y="0px"
	 viewBox="0 0 200 200" style="enable-background:new 0 0 200 200;" xml:space="preserve">
<title>公告管理</title>
<desc>Created with Sketch.</desc>
<title>议题收集</title>
<desc>Created with Sketch.</desc>
<title>办公</title>
<desc>Created with Sketch.</desc>
<path d="M23.6,90.1h67.1V26.7c0-12.4-9.9-23.6-23.6-23.6H23.6C9.9,3.1,0,14.3,0,26.7v41C0,80.1,9.9,90.1,23.6,90.1z M198.8,67.7v-41
	c0-12.4-9.9-23.6-23.6-23.6h-43.5c-12.4,0-23.6,9.9-23.6,23.6v64.6h67.1C188.9,90.1,198.8,80.1,198.8,67.7z M132.9,196.9h44.7
	c12.4,0,22.4-9.9,22.4-23.6v-41c0-12.4-9.9-23.6-23.6-23.6h-67.1v64.6C109.3,185.7,119.3,196.9,132.9,196.9z M23.6,196.9h43.5
	c12.4,0,23.6-9.9,23.6-23.6v-63.4H23.6c-12.4,0-23.6,9.9-23.6,23.6v41C0,185.7,9.9,196.9,23.6,196.9L23.6,196.9z"/>
</svg>
