<?xml version="1.0" encoding="utf-8"?>
<!-- Generator: Adobe Illustrator 22.0.1, SVG Export Plug-In . SVG Version: 6.00 Build 0)  -->
<svg version="1.1" id="图层_1" xmlns="http://www.w3.org/2000/svg" xmlns:xlink="http://www.w3.org/1999/xlink" x="0px" y="0px"
	 viewBox="0 0 200 200" style="enable-background:new 0 0 200 200;" xml:space="preserve">
<title>公告管理</title>
<desc>Created with Sketch.</desc>
<title>议题收集</title>
<desc>Created with Sketch.</desc>
<title>办公</title>
<desc>Created with Sketch.</desc>
<path d="M169.8,20.7h-41.2C124.4,9.3,113.6,1,100.8,1S77.2,9.3,73,20.7H31.8c-10.8,0-19.7,8.9-19.7,19.7v137.9
	c0,10.8,8.9,19.7,19.7,19.7h137.9c10.8,0,19.7-8.9,19.7-19.7V40.4C189.4,29.6,180.6,20.7,169.8,20.7z M89.8,150.8H68.7V79.2h21.1
	V150.8z M100.8,40.4c-5.4,0-9.8-4.4-9.8-9.8s4.4-9.8,9.8-9.8s9.8,4.4,9.8,9.8S106.2,40.4,100.8,40.4z M132.9,150.8h-21.1V79.2h21.1
	V150.8z"/>
</svg>
