<?xml version="1.0" encoding="utf-8"?>
<!-- Generator: Adobe Illustrator 22.0.1, SVG Export Plug-In . SVG Version: 6.00 Build 0)  -->
<svg version="1.1" id="图层_1" xmlns="http://www.w3.org/2000/svg" xmlns:xlink="http://www.w3.org/1999/xlink" x="0px" y="0px"
	 viewBox="0 0 200 200" style="enable-background:new 0 0 200 200;" xml:space="preserve">
<path d="M196.1,51.5c0,0-28.4,28.7-31.3,31.6c-2.9,2.9-12.7,2.6-12.7,2.6s-26-2.9-29.7-6.7c-3.7-3.7-6.3-30.9-6.3-30.9
	s-0.7-7.6,3-11.3c3.7-3.7,31.5-31.5,31.5-31.5s3.6-4-1.6-4C132.3,1.2,98.5,1.6,82.1,18l-3.4,3.4C59.8,40.4,58.1,69,72.6,89.9
	L9.1,146.1c-7.6,7.6-15.9,30.2,0,46.1s38.3,7.6,45.9,0c0,0,45.4-51.1,56.4-63.2c20.9,15,49.6,13.5,68.8-5.7l3.4-3.4
	c15.9-15.9,16.4-49.5,16.5-66.4C200,48,196.1,51.5,196.1,51.5z M36.9,183.2c-10.4,0-18.8-8.4-18.8-18.8c0-10.4,8.4-18.8,18.8-18.8
	s18.8,8.4,18.8,18.8C55.7,174.8,47.3,183.2,36.9,183.2z"/>
</svg>
