<?xml version="1.0" encoding="utf-8"?>
<!-- Generator: Adobe Illustrator 22.0.1, SVG Export Plug-In . SVG Version: 6.00 Build 0)  -->
<svg version="1.1" id="图层_1" xmlns="http://www.w3.org/2000/svg" xmlns:xlink="http://www.w3.org/1999/xlink" x="0px" y="0px"
	 viewBox="0 0 200 200" style="enable-background:new 0 0 200 200;" xml:space="preserve">
<g>
	<title>公告管理</title>
	<desc>Created with Sketch.</desc>
	<title>议题收集</title>
	<desc>Created with Sketch.</desc>
	<title>办公</title>
	<desc>Created with Sketch.</desc>
	<g>
		<path d="M72.2,138.6l-9.5-9.5c-0.6-0.6-1.6-0.6-2.2,0c-0.2,0.2-0.3,0.5-0.4,0.7l-2.7,12.2c-0.2,0.8,0.3,1.6,1.2,1.8
			c0.2,0,0.4,0.1,0.7,0l12.3-2.7c0.8-0.2,1.3-1,1.2-1.8C72.6,139.1,72.4,138.8,72.2,138.6z"/>
		<path d="M122.7,88.6l-9.9-9.9c-2-2-5.3-2-7.4,0c0,0,0,0,0,0l-32.1,32.1c-2,2-2,5.3,0,7.4l9.9,9.9c2,2,5.3,2,7.4,0c0,0,0,0,0,0
			L122.7,96C124.8,94,124.8,90.7,122.7,88.6C122.7,88.6,122.7,88.6,122.7,88.6z"/>
		<path d="M146.9,64.4l-9.9-9.9c-2-2-5.3-2-7.4,0c0,0,0,0,0,0l-6,6c-2,2-2,5.3,0,7.4c0,0,0,0,0,0l9.9,9.9c2,2,5.3,2,7.4,0
			c0,0,0,0,0,0l6-6C149,69.8,149,66.4,146.9,64.4C146.9,64.4,146.9,64.4,146.9,64.4z"/>
		<path d="M179.5,1.3H21.8c-11.3,0-20.5,9.2-20.5,20.5v157.7c0,11.3,9.2,20.5,20.5,20.5h157.7c11.3,0,20.5-9.2,20.5-20.5V21.8
			C200,10.5,190.8,1.3,179.5,1.3z M166.8,73.5l-78.4,78.4c-1,1-2.3,1.7-3.8,2.1l-36.3,8c-4.1,0.9-8.2-1.7-9.1-5.8
			c-0.2-1.1-0.2-2.2,0-3.3l8.1-36.1c0.3-1.4,1-2.7,2.1-3.7l78.4-78.4c3-3,7.8-3,10.8,0l28.1,28.1C169.8,65.7,169.8,70.5,166.8,73.5z
			"/>
	</g>
</g>
</svg>
