<?xml version="1.0" encoding="utf-8"?>
<!-- Generator: Adobe Illustrator 22.0.1, SVG Export Plug-In . SVG Version: 6.00 Build 0)  -->
<svg version="1.1" id="图层_1" xmlns="http://www.w3.org/2000/svg" xmlns:xlink="http://www.w3.org/1999/xlink" x="0px" y="0px"
	 viewBox="0 0 200 200" style="enable-background:new 0 0 200 200;" xml:space="preserve">
<title>公告管理</title>
<desc>Created with Sketch.</desc>
<title>议题收集</title>
<desc>Created with Sketch.</desc>
<title>办公</title>
<desc>Created with Sketch.</desc>
<title>导航检察课堂-党建制度</title>
<desc>Created with Sketch.</desc>
<g id="检察课堂-判断题_1_" transform="translate(-100.000000, -864.000000)">
	<g id="二级目录_x2F_流程配置-copy" transform="translate(70.000000, 853.000000)">
		<g id="导航检察课堂-业务培训" transform="translate(30.000000, 11.000000)">
			<path id="Shape" d="M53.5,19.9h93.9c1.4,0,2.8,0.7,3.6,1.9l16,22.4c1.4,2,1,4.8-1,6.2c-0.8,0.5-1.7,0.8-2.6,0.8H37.6
				c-2.5,0-4.5-2-4.5-4.5c0-0.9,0.3-1.8,0.8-2.6l16-22.4C50.7,20.6,52.1,19.9,53.5,19.9z M78.1,78c-2.5,0-4.5,2-4.5,4.5V87
				c0,2.5,2,4.5,4.5,4.5h44.8c2.5,0,4.5-2,4.5-4.5v-4.5c0-2.5-2-4.5-4.5-4.5H78.1z M156.7,181H44.3c-3.9,0-7.3-2.5-8.5-6.1L1.5,71.9
				c-1.6-4.7,1-9.8,5.7-11.3C8,60.3,9,60.1,10,60.1H191c4.9,0,9,4,9,8.9c0,1-0.2,1.9-0.5,2.8l-34.3,102.9
				C164,178.5,160.6,181,156.7,181z"/>
		</g>
	</g>
</g>
</svg>
