<?xml version="1.0" encoding="utf-8"?>
<!-- Generator: Adobe Illustrator 22.0.0, SVG Export Plug-In . SVG Version: 6.00 Build 0)  -->
<svg version="1.1" id="图层_1" xmlns="http://www.w3.org/2000/svg" xmlns:xlink="http://www.w3.org/1999/xlink" x="0px" y="0px"
	 viewBox="0 0 200 200" style="enable-background:new 0 0 200 200;" xml:space="preserve">
<title>检察导航@2x</title>
<desc>Created with Sketch.</desc>
<g id="Artboard" transform="translate(-62.000000, -106.000000)">
	<g id="检察导航" transform="translate(62.000000, 106.000000)">
		<path id="Shape" d="M6,31.7c0-14.3,10.7-26,23.9-26h39.8c13.2,0,23.9,11.6,23.9,26v56.2H29.9C16.7,87.9,6,76.3,6,61.9L6,31.7
			L6,31.7z M104.6,31.7c0-14.3,10.7-26,23.9-26h39.8c13.2,0,23.9,11.6,23.9,26v30.3c0,14.3-10.7,26-23.9,26h-63.7V31.7z M6,137.2
			c0-14.3,10.7-26,23.9-26h63.7v56.2c0,14.3-10.7,25.9-23.9,25.9H29.9C16.7,193.4,6,181.8,6,167.5L6,137.2L6,137.2z M193,137.2
			c0-14.3-10.7-26-23.9-26h-63.7v56.2c0,14.3,10.7,25.9,23.9,25.9h39.8c13.2,0,23.9-11.6,23.9-25.9L193,137.2L193,137.2z
			 M181.4,120.8l-0.1,0.1L181.4,120.8L181.4,120.8z"/>
	</g>
</g>
</svg>
