<?xml version="1.0" encoding="utf-8"?>
<!-- Generator: Adobe Illustrator 22.0.1, SVG Export Plug-In . SVG Version: 6.00 Build 0)  -->
<svg version="1.1" id="图层_1" xmlns="http://www.w3.org/2000/svg" xmlns:xlink="http://www.w3.org/1999/xlink" x="0px" y="0px"
	 viewBox="0 0 200 200" style="enable-background:new 0 0 200 200;" xml:space="preserve">
<title>公告管理</title>
<desc>Created with Sketch.</desc>
<title>议题收集</title>
<desc>Created with Sketch.</desc>
<title>办公</title>
<desc>Created with Sketch.</desc>
<path d="M199.6,76.6c-1.6-3.6-4.1-6.2-7.8-6.7l-57.6-8.3L108.3,9.2c-1.6-3.1-5.2-5.2-8.8-5.2c-3.6,0-6.7,2.1-8.8,5.7L65.8,62.6
	L8.2,70.9c-3.6,0.5-6.7,3.1-7.8,6.7c-1,3.6,0,7.3,2.6,9.9l42,41l-7.8,58.1c-0.5,3.6,1,7.3,3.6,9.3c1.6,1,3.6,2.1,5.7,2.1
	c1.6,0,3.1-0.5,4.7-1l49.3-27.5l48.8,27c1.6,0.5,3.1,1,4.7,1c5.2,0,9.3-4.1,9.3-9.9v-2.1l-7.8-57.6L197,86.5
	C199.6,83.9,200.6,80.3,199.6,76.6z"/>
</svg>
