<?xml version="1.0" encoding="utf-8"?>
<!-- Generator: Adobe Illustrator 22.0.1, SVG Export Plug-In . SVG Version: 6.00 Build 0)  -->
<svg version="1.1" id="图层_1" xmlns="http://www.w3.org/2000/svg" xmlns:xlink="http://www.w3.org/1999/xlink" x="0px" y="0px"
	 viewBox="0 0 200 200" style="enable-background:new 0 0 200 200;" xml:space="preserve">
<title>公告管理</title>
<desc>Created with Sketch.</desc>
<title>议题收集</title>
<desc>Created with Sketch.</desc>
<title>办公</title>
<desc>Created with Sketch.</desc>
<path d="M159.6,68.3l-74.2,74.2c-1.6,1.6-3.8,2.5-6.1,2.5c-2.3,0-4.5-0.9-6.1-2.5l-35.2-35.2c-3.4-3.4-3.4-8.9,0-12.3
	c3.4-3.4,8.9-3.4,12.3,0l29.1,29.1L147.3,56c3.4-3.4,8.9-3.4,12.3,0C163,59.4,163,64.9,159.6,68.3 M98.7,1.5C44.8,1.5,1,45.3,1,99.3
	S44.8,197,98.7,197c54,0,97.7-43.8,97.7-97.7S152.7,1.5,98.7,1.5"/>
</svg>
