<?xml version="1.0" encoding="utf-8"?>
<!-- Generator: Adobe Illustrator 22.0.1, SVG Export Plug-In . SVG Version: 6.00 Build 0)  -->
<svg version="1.1" id="图层_1" xmlns="http://www.w3.org/2000/svg" xmlns:xlink="http://www.w3.org/1999/xlink" x="0px" y="0px"
	 viewBox="0 0 200 200" style="enable-background:new 0 0 200 200;" xml:space="preserve">
<title>公告管理</title>
<desc>Created with Sketch.</desc>
<title>议题收集</title>
<desc>Created with Sketch.</desc>
<title>办公</title>
<desc>Created with Sketch.</desc>
<title>导航检察课堂-党建制度</title>
<desc>Created with Sketch.</desc>
<g id="会议管理_1_" transform="translate(-41.000000, -361.000000)">
	<g id="签到统计" transform="translate(0.000000, 330.000000)">
		<g id="统计" transform="translate(41.000000, 31.000000)">
			<path id="Shape" d="M26.9,123.8c-3.3,0-6.5-0.6-9.5-1.9c-3-1.3-5.6-3-7.8-5.2c-2.2-2.2-3.9-4.8-5.2-7.8c-1.3-3-1.9-6.2-1.9-9.5
				c0-3.3,0.6-6.5,1.9-9.4c1.3-2.9,3-5.5,5.2-7.7c2.2-2.2,4.8-3.9,7.8-5.2c3-1.3,6.2-1.9,9.5-1.9c0.7,0,1.3,0,1.9,0.1
				c0.6,0.1,1.1,0.1,1.7,0.1l33.6-40.9c-0.6-1.2-0.9-2.4-1.1-3.8c-0.2-1.4-0.3-2.8-0.3-4.3c0-3.3,0.6-6.5,1.9-9.5
				c1.3-3,3-5.6,5.2-7.8C72,6.8,74.6,5,77.6,3.8s6.2-1.9,9.5-1.9c3.3,0,6.5,0.6,9.5,1.9s5.6,3,7.8,5.2c2.2,2.2,3.9,4.8,5.2,7.8
				c1.3,3,1.9,6.2,1.9,9.5c0,2.8-0.4,5.4-1.3,7.9c-0.9,2.5-2,4.8-3.5,7l29.2,65.5l16.7-30c-1.3-2-2.3-4.1-3.1-6.5
				c-0.8-2.4-1.2-4.9-1.2-7.5c0-3.3,0.6-6.5,1.9-9.5c1.3-3,3-5.6,5.2-7.8c2.2-2.2,4.8-3.9,7.8-5.2c3-1.3,6.2-1.9,9.5-1.9
				c3.3,0,6.5,0.6,9.5,1.9c3,1.3,5.6,3,7.9,5.2c2.2,2.2,4,4.8,5.3,7.8c1.3,3,1.9,6.2,1.9,9.5c0,3.5-0.6,6.7-1.9,9.7
				c-1.3,3-3,5.6-5.3,7.9c-2.2,2.3-4.9,4-7.9,5.3c-3,1.3-6.2,1.9-9.5,1.9h-4.1l-16.4,30c2.5,2.3,4.5,5,6,8.1
				c1.5,3.1,2.2,6.5,2.2,10.2c0,3.3-0.6,6.5-1.9,9.5c-1.3,3-3,5.6-5.3,7.9c-2.2,2.3-4.8,4-7.8,5.3c-2.9,1.3-6.1,1.9-9.6,1.9
				c-3.5,0-6.6-0.6-9.6-1.9c-2.9-1.3-5.5-3-7.7-5.3c-2.2-2.3-3.9-4.9-5.2-7.9c-1.3-3-1.9-6.2-1.9-9.5c0-3.7,0.7-7.1,2.2-10.2
				c1.4-3.1,3.4-5.8,6-8.1L89.9,50.7c-1.2,0.2-2.1,0.3-2.8,0.3c-1.8,0-3.6-0.2-5.3-0.7c-1.7-0.5-3.3-1-4.7-1.7L47.6,86
				c1.1,2,2.1,4.1,2.8,6.3c0.7,2.3,1,4.6,1,7c0,3.3-0.6,6.5-1.9,9.5c-1.3,3-3,5.6-5.3,7.8c-2.2,2.2-4.8,3.9-7.8,5.2
				C33.5,123.1,30.3,123.8,26.9,123.8z M2.5,172.8H197v23.5H2.5V172.8z"/>
		</g>
	</g>
</g>
</svg>
