<?xml version="1.0" encoding="utf-8"?>
<!-- Generator: Adobe Illustrator 22.0.0, SVG Export Plug-In . SVG Version: 6.00 Build 0)  -->
<svg version="1.1" id="图层_1" xmlns="http://www.w3.org/2000/svg" xmlns:xlink="http://www.w3.org/1999/xlink" x="0px" y="0px"
	 viewBox="0 0 200 200" style="enable-background:new 0 0 200 200;" xml:space="preserve">
<title>会议统计</title>
<desc>Created with Sketch.</desc>
<g id="Artboard" transform="translate(-66.000000, -118.000000)">
	<g id="会议统计" transform="translate(66.000000, 118.000000)">
		<path id="Combined-Shape" d="M14,116V26h170v90H14z M64,83v17h11V83H64z M92,65v35h11V65H92z M119,48v52h11V48H119z"/>
		<g id="men" transform="translate(1.000000, 95.000000)">
			<circle id="Oval-7" cx="38" cy="40" r="14"/>
			<path id="Combined-Shape_1_" d="M63,76H14l0-6.3c0-1.7,0.4-3.3,1.2-4.8C20.3,55.6,28.1,51,38.5,51s18.2,4.6,23.3,13.9
				c0.8,1.5,1.2,3.1,1.2,4.8V76z"/>
		</g>
		<g id="men_1_" transform="translate(60.000000, 95.000000)">
			<circle id="Oval-7_1_" cx="38" cy="40" r="14"/>
			<path id="Combined-Shape_2_" d="M63,76H14l0-6.3c0-1.7,0.4-3.3,1.2-4.8C20.3,55.6,28.1,51,38.5,51s18.2,4.6,23.3,13.9
				c0.8,1.5,1.2,3.1,1.2,4.8V76z"/>
		</g>
		<g id="men_2_" transform="translate(120.000000, 95.000000)">
			<circle id="Oval-7_2_" cx="38" cy="40" r="14"/>
			<path id="Combined-Shape_3_" d="M63,76H14l0-6.3c0-1.7,0.4-3.3,1.2-4.8C20.3,55.6,28.1,51,38.5,51s18.2,4.6,23.3,13.9
				c0.8,1.5,1.2,3.1,1.2,4.8V76z"/>
		</g>
	</g>
</g>
</svg>
