<?xml version="1.0" encoding="utf-8"?>
<!-- Generator: Adobe Illustrator 22.0.1, SVG Export Plug-In . SVG Version: 6.00 Build 0)  -->
<svg version="1.1" id="图层_1" xmlns="http://www.w3.org/2000/svg" xmlns:xlink="http://www.w3.org/1999/xlink" x="0px" y="0px"
	 viewBox="0 0 200 200" style="enable-background:new 0 0 200 200;" xml:space="preserve">
<title>公告管理</title>
<desc>Created with Sketch.</desc>
<title>议题收集</title>
<desc>Created with Sketch.</desc>
<title>办公</title>
<desc>Created with Sketch.</desc>
<title>导航检察课堂-党建制度</title>
<desc>Created with Sketch.</desc>
<g id="会议管理_x2F_签到统计" transform="translate(-101.000000, -490.000000)">
	<g id="菜单" transform="translate(0.000000, 118.000000)">
		<g id="系统管理" transform="translate(0.000000, 72.000000)">
			<g id="二级目录_x2F_会议列表" transform="translate(70.000000, 288.000000)">
				<g id="会议列表" transform="translate(31.000000, 12.000000)">
					<g id="列表">
						<path id="Shape_3_" d="M24,7.1c3.8,0,7,1.3,9.6,3.9c2.6,2.6,3.9,5.8,3.9,9.6v10.4c0,3.8-1.3,7-3.9,9.7c-2.6,2.6-5.8,4-9.6,4
							H13.3c-3.6,0-6.8-1.3-9.4-4C1.3,37.9,0,34.7,0,30.9V20.5c0-3.8,1.3-7,3.9-9.6s5.7-3.9,9.4-3.9H24z M183.8,7.1
							c4.4,0,8.2,1.3,11.4,3.9c3.2,2.6,4.8,5.8,4.8,9.6v10.4c0,3.8-1.6,7-4.8,9.7c-3.2,2.6-7,4-11.4,4H79c-4.6,0-8.5-1.3-11.7-4
							c-3.2-2.6-4.8-5.9-4.8-9.7V20.5c0-3.8,1.6-7,4.8-9.6c3.2-2.6,7.1-3.9,11.7-3.9H183.8z M24,82.1c3.8,0,7,1.3,9.6,4
							c2.6,2.6,3.9,5.9,3.9,9.7v10.4c0,3.7-1.3,6.8-3.9,9.5c-2.6,2.6-5.8,4-9.6,4H13.3c-3.6,0-6.8-1.3-9.4-4
							c-2.6-2.6-3.9-5.8-3.9-9.5V95.7c0-3.8,1.3-7,3.9-9.7c2.6-2.6,5.7-4,9.4-4H24z M183.8,82.1c4.4,0,8.2,1.3,11.4,4
							c3.2,2.6,4.8,5.9,4.8,9.7v10.4c0,3.7-1.6,6.8-4.8,9.5c-3.2,2.6-7,4-11.4,4H79c-4.6,0-8.5-1.3-11.7-4c-3.2-2.6-4.8-5.8-4.8-9.5
							V95.7c0-3.8,1.6-7,4.8-9.7c3.2-2.6,7.1-4,11.7-4H183.8z M24,157.1c3.8,0,7,1.3,9.6,4c2.6,2.6,3.9,5.8,3.9,9.5v10.4
							c0,3.8-1.3,7-3.9,9.7c-2.6,2.6-5.8,4-9.6,4H13.3c-3.6,0-6.8-1.3-9.4-4c-2.6-2.6-3.9-5.9-3.9-9.7v-10.4c0-3.7,1.3-6.8,3.9-9.5
							c2.6-2.6,5.7-4,9.4-4H24z M183.8,157.1c4.4,0,8.2,1.3,11.4,4c3.2,2.6,4.8,5.8,4.8,9.5v10.4c0,3.8-1.6,7-4.8,9.7
							c-3.2,2.6-7,4-11.4,4H79c-4.6,0-8.5-1.3-11.7-4c-3.2-2.6-4.8-5.9-4.8-9.7v-10.4c0-3.7,1.6-6.8,4.8-9.5c3.2-2.6,7.1-4,11.7-4
							H183.8z"/>
					</g>
				</g>
			</g>
		</g>
	</g>
</g>
</svg>
