<?xml version="1.0" encoding="utf-8"?>
<!-- Generator: Adobe Illustrator 22.0.1, SVG Export Plug-In . SVG Version: 6.00 Build 0)  -->
<svg version="1.1" id="图层_1" xmlns="http://www.w3.org/2000/svg" xmlns:xlink="http://www.w3.org/1999/xlink" x="0px" y="0px"
	 viewBox="0 0 200 200" style="enable-background:new 0 0 200 200;" xml:space="preserve">
<title>公告管理</title>
<desc>Created with Sketch.</desc>
<title>议题收集</title>
<desc>Created with Sketch.</desc>
<title>办公</title>
<desc>Created with Sketch.</desc>
<g>
	<polygon points="124.2,194.3 173.6,144.5 124.2,144.5 	"/>
	<path d="M163.7,5H35.3c-5.5,0-9.9,4.5-9.9,10v169.4c0,5.5,4.4,10,9.9,10h76.6v-58.6h61.8V15C173.6,9.5,169.2,5,163.7,5z M126.8,78
		c0,0-5.5,8.6-14.3,13.1c-8.8,4.6-19.6,3.3-26.7-1.2c-7.1-4.5-9.5-8.2-9.5-8.2l-6.1,3.5c0,0-1.3,0.6-1.3-0.8V62.5c0,0,0-1.9,1.5-1.3
		c1.2,0.6,14.6,8.2,18.9,10.6c2.3,1,0.3,1.9,0.3,1.9l-5.9,3.4c0,0,3.4,4.2,8.3,6.4c5.3,2.7,10.2,3.1,16.2,0.8
		c3.9-1.5,8.6-5.3,11.9-10.9L126.8,78L126.8,78z M129.9,64.5c0,0,0,1.9-1.5,1.2c-1.2-0.6-14.6-8.2-18.9-10.6c-2.3-1-0.3-1.9-0.3-1.9
		l5.9-3.4c0,0-3.4-4.2-8.3-6.4c-5.3-2.7-10.2-3.1-16.2-0.8c-3.9,1.5-8.6,5.3-11.9,10.9l-6.7-4.5h0c0,0,5.6-8.6,14.3-13.1
		c8.8-4.6,19.6-3.3,26.7,1.2c7.1,4.5,9.5,8.2,9.5,8.2l6.1-3.5c0,0,1.3-0.6,1.3,0.8V64.5z"/>
</g>
</svg>
