<?xml version="1.0" encoding="utf-8"?>
<!-- Generator: Adobe Illustrator 22.0.1, SVG Export Plug-In . SVG Version: 6.00 Build 0)  -->
<svg version="1.1" id="图层_1" xmlns="http://www.w3.org/2000/svg" xmlns:xlink="http://www.w3.org/1999/xlink" x="0px" y="0px"
	 viewBox="0 0 200 200" style="enable-background:new 0 0 200 200;" xml:space="preserve">
<title>公告管理</title>
<desc>Created with Sketch.</desc>
<title>议题收集</title>
<desc>Created with Sketch.</desc>
<title>办公</title>
<desc>Created with Sketch.</desc>
<g>
	<path d="M199.4,88.4v-7.2c0.4-3.3-2.2-5.5-5.2-5.5h-3.3V5.5c0-3-2.6-5.5-5.5-5.5H32.2c-3,0-5.5,2.6-5.5,5.5v15.1h-7.8
		c-2.9,0-5.5,2.6-5.5,5.5v26.2H5.6c-3,0-5.5,2.6-5.5,5.5v30.7C0,89.1,0,89.5,0,89.9v99.3c0,0.4,0,0.9,0.1,1.3v3.2
		c0.1,3,2.5,5.5,5.5,5.5h2.9c0.5,0.1,1.1,0.1,1.6,0.1h102.1c-15.7-11.8-24.9-30.2-25-49.8c0-34.3,28.1-62.3,62.3-62.3
		c19.6,0,38.1,9.3,49.9,25.1V89.9C199.5,89.4,199.5,88.9,199.4,88.4z"/>
	<path d="M193.5,142.1L193.5,142.1l-7.7-1.7c-0.6-1.9-1.4-3.8-2.3-5.6l4.2-7c1.6-2.5,2.4-6.2,0-8.5l-4.3-4.3
		c-1.2-1.2-2.7-1.6-4.3-1.6c-1.6,0-3.3,0.5-4.5,1.4l-6.8,4.3c-1.8-0.9-3.6-1.7-5.5-2.3l-1.7-7.8c-0.5-2.9-3-6-6.4-6h-6
		c-3.3,0-5.4,3.2-6,6l-1.9,7.7c-2,0.7-4,1.5-5.9,2.5l-7-4.4c-1.2-0.8-2.9-1.4-4.5-1.4c-1.6,0-3.1,0.5-4.3,1.6l-4.3,4.3
		c-2.4,2.4-1.6,6,0,8.5l4.4,7.3c-0.8,1.7-1.6,3.4-2.1,5.2l-7.7,1.7c-2.9,0.5-6,3-6,6.4v6c0,3.3,3.2,5.4,6,6l7.8,2
		c0.5,1.7,1.2,3.3,2,4.8l-4.4,7.4c-1.6,2.5-2.4,6.2,0,8.5l4.3,4.3c1.2,1.2,2.7,1.6,4.3,1.6c1.6,0,3.3-0.5,4.5-1.4l7-4.4
		c1.9,1,3.9,1.8,5.9,2.5l1.9,7.7c0.7,2.9,2.7,6,6,6h6c3.3,0,5.8-3.1,6.4-6l1.7-7.9c1.9-0.6,3.7-1.4,5.5-2.3l6.8,4.3
		c1.2,0.8,2.9,1.4,4.5,1.4c1.6,0,3.1-0.5,4.3-1.6l4.3-4.3c2.4-2.4,1.6-6,0-8.5l-4.2-7c0.8-1.7,1.6-3.4,2.2-5.2l7.8-2
		c2.9-0.7,6-2.7,6-6v-6C199.5,145.1,196.4,142.6,193.5,142.1z M151.3,165.8c-8,0-14.6-6.5-14.6-14.6s6.6-14.6,14.6-14.6
		c8,0,14.6,6.5,14.6,14.6S159.4,165.8,151.3,165.8z"/>
</g>
</svg>
