<?xml version="1.0" encoding="utf-8"?>
<!-- Generator: Adobe Illustrator 22.0.0, SVG Export Plug-In . SVG Version: 6.00 Build 0)  -->
<svg version="1.1" id="图层_1" xmlns="http://www.w3.org/2000/svg" xmlns:xlink="http://www.w3.org/1999/xlink" x="0px" y="0px"
	 viewBox="0 0 200 200" style="enable-background:new 0 0 200 200;" xml:space="preserve">
<title>文件统计</title>
<desc>Created with Sketch.</desc>
<g id="Artboard" transform="translate(-61.000000, -126.000000)">
	<g id="文件统计" transform="translate(61.000000, 126.000000)">
		<path id="Combined-Shape" d="M15,167c-2.8,0-5-2.2-5-5V36c0-2.8,2.2-5,5-5h70.3c1.6,0,3.2,0.8,4.1,2.1l12.6,18
			c0.9,1.3,2.5,2.1,4.1,2.1H183c2.8,0,5,2.2,5,5V162c0,2.8-2.2,5-5,5H15z M52,131v22h16v-22H52z M90,109v45h16v-45H90z M128,87v67
			h16V87H128z"/>
	</g>
</g>
</svg>
