<?xml version="1.0" encoding="utf-8"?>
<!-- Generator: Adobe Illustrator 22.0.1, SVG Export Plug-In . SVG Version: 6.00 Build 0)  -->
<svg version="1.1" id="图层_1" xmlns="http://www.w3.org/2000/svg" xmlns:xlink="http://www.w3.org/1999/xlink" x="0px" y="0px"
	 viewBox="0 0 200 200" style="enable-background:new 0 0 200 200;" xml:space="preserve">
<path id="Rectangle-11-Copy" d="M125,144.1h50.1L125,194.1V144.1z"/>
<title>公告管理</title>
<desc>Created with Sketch.</desc>
<title>议题收集</title>
<desc>Created with Sketch.</desc>
<title>办公</title>
<desc>Created with Sketch.</desc>
<path d="M150.1,113.2c-28,0-50.6-22.7-50.6-50.6S122.1,12,150.1,12c9.1,0,17.6,2.4,25,6.6v-4.7c0-6-4-10-10-10H34.9c-5,0-10,4-10,10
	v170.2c0,6,4,10,10,10H113v-59.1h62.1v-28.5C167.7,110.8,159.2,113.2,150.1,113.2z"/>
<path d="M150.4,21.2c-22.7,0-41.1,18.4-41.1,41.1c0,22.7,18.4,41.1,41.1,41.1c22.7,0,41.1-18.4,41.1-41.1
	C191.5,39.6,173.1,21.2,150.4,21.2z M169.1,91.1l-18.7-9.8l-18.7,9.8l3.6-20.8l-15.1-14.8l20.9-3l9.4-19l9.4,19l20.9,3l-15.1,14.8
	L169.1,91.1z"/>
</svg>
