<?xml version="1.0" encoding="utf-8"?>
<!-- Generator: Adobe Illustrator 22.0.1, SVG Export Plug-In . SVG Version: 6.00 Build 0)  -->
<svg version="1.1" id="图层_1" xmlns="http://www.w3.org/2000/svg" xmlns:xlink="http://www.w3.org/1999/xlink" x="0px" y="0px"
	 viewBox="0 0 200 200" style="enable-background:new 0 0 200 200;" xml:space="preserve">
<title>公告管理</title>
<desc>Created with Sketch.</desc>
<title>议题收集</title>
<desc>Created with Sketch.</desc>
<title>办公</title>
<desc>Created with Sketch.</desc>
<polygon points="118.3,195.8 168.8,145.3 118.3,145.3 "/>
<path d="M151.4,20.2c-22.7,0-41.1,18.4-41.1,41.1s18.4,41.1,41.1,41.1s41.1-18.4,41.1-41.1S174.1,20.2,151.4,20.2z M156.6,59.9v32.2
	h-10.3V59.9h-20.5l25.7-24.2l25.7,24.2H156.6z"/>
<path d="M168.8,15.2V14c0-5.6-4.5-10.1-10.1-10.1H27.3c-5.6,0-10.1,4.5-10.1,10.1v171.7c0,5.6,4.5,10.1,10.1,10.1h78.3v-59.4h63.1
	v-27.8c-5.9,2.4-12.4,3.8-19.2,3.8c-13.3,0-25.4-5.2-34.4-13.6H31.6V83.6h72.4C100.8,77,99,69.7,99,61.9c0-0.3,0-0.7,0-1H31.6V45.6
	h70.2c6.8-19.9,25.6-34.2,47.8-34.2C156.3,11.4,162.8,12.8,168.8,15.2z"/>
</svg>
