<?xml version="1.0" encoding="utf-8"?>
<!-- Generator: Adobe Illustrator 22.0.1, SVG Export Plug-In . SVG Version: 6.00 Build 0)  -->
<svg version="1.1" id="图层_1" xmlns="http://www.w3.org/2000/svg" xmlns:xlink="http://www.w3.org/1999/xlink" x="0px" y="0px"
	 viewBox="0 0 200 200" style="enable-background:new 0 0 200 200;" xml:space="preserve">
<title>公告管理</title>
<desc>Created with Sketch.</desc>
<title>议题收集</title>
<desc>Created with Sketch.</desc>
<title>办公</title>
<desc>Created with Sketch.</desc>
<title>导航检察课堂-党建制度</title>
<desc>Created with Sketch.</desc>
<g>
	<rect x="107.8" y="1.3" width="12.4" height="37.3"/>
	<rect x="135.2" y="1.3" width="12.4" height="37.3"/>
	<rect x="162.5" y="1.3" width="12.4" height="37.3"/>
	<rect x="80.5" y="1.3" width="12.4" height="37.3"/>
	<path d="M121.5,130.8c-1.9-3.1-3.8-6.7-3.8-10.4c5.7-3.7,10.2-9.8,12.1-17.8c0.6,0.6,1.3,0.6,1.9,0.6c1.9,0,3.2-1.2,3.2-3.1v-7.4
		c0-1.8-1.3-3.1-3.2-3.1h-1.3C129.1,75,119,63.4,106.9,63.4S85.3,75,83.4,89.7c-1.9,0-3.2,1.2-3.2,3.1v6.7c0,1.8,1.3,3.1,3.2,3.1
		h0.6c1.9,6.7,5.1,12.3,9.5,15.3c1.3,4.3-0.6,8.6-3.2,12.3c-15.9,0.6-27.3,4.3-27.3,15.9c1.3,8.6,17.1,15.3,37.4,16.6l-2.5-4.3
		l6.3-10.4l-5.1-4.9c-1.3-1.2-1.3-3.1,0-4.9h14.6c1.3,1.2,1.3,3.1,0,4.9l-5.1,4.9l6.3,10.4l-1.9,4.3c20.9-1.2,36.8-8,36.8-15.9
		C150.1,133.9,138,131.5,121.5,130.8z"/>
	<rect x="53.2" y="1.3" width="11.9" height="37.3"/>
	<path d="M186.7,13.7v26.8H14V13.7L1,29.3v156.4L14.7,200h171.4l13.7-14.3V29.3L186.7,13.7z M13.4,187.6V50.9h173.3l0.6,136.6H13.4z
		"/>
	<polygon points="37.7,1.3 25.8,1.3 25.8,38.5 38.3,38.5 	"/>
</g>
</svg>
