<?xml version="1.0" encoding="utf-8"?>
<!-- Generator: Adobe Illustrator 22.0.0, SVG Export Plug-In . SVG Version: 6.00 Build 0)  -->
<svg version="1.1" id="图层_1" xmlns="http://www.w3.org/2000/svg" xmlns:xlink="http://www.w3.org/1999/xlink" x="0px" y="0px"
	 viewBox="0 0 200 200" style="enable-background:new 0 0 200 200;" xml:space="preserve">
<title>值班统计</title>
<desc>Created with Sketch.</desc>
<g id="Artboard" transform="translate(-74.000000, -109.000000)">
	<g id="值班统计" transform="translate(74.000000, 109.000000)">
		<path id="Shape" d="M141,44.6c0,3.5-3.3,6.4-7.3,6.4c-4,0-7.3-2.8-7.3-6.4V17.3c0-3.5,3.3-6.3,7.3-6.3c4,0,7.3,2.8,7.3,6.3V44.6z
			 M72.5,44.6c0,3.5-3.3,6.4-7.3,6.4S58,48.2,58,44.6V17.3c0-3.5,3.3-6.3,7.3-6.3c4,0,7.3,2.8,7.3,6.3V44.6z"/>
		<path id="Shape_1_" d="M168.3,28h-23.6v16.2c0,6.3-5.1,11.4-11.4,11.4s-11.4-5.1-11.4-11.4V28H76.1v16.2c0,6.3-5.1,11.4-11.4,11.4
			s-11.4-5.1-11.4-11.4V28H29.7c-5.4,0-9.7,4.3-9.7,9.7v138.6c0,5.4,4.3,9.7,9.7,9.7h138.6c5.4,0,9.7-4.3,9.7-9.7V37.7
			C178,32.4,173.7,28,168.3,28z M165.7,165.5c0,4.5-3.7,8.2-8.2,8.2H40.5c-4.5,0-8.2-3.7-8.2-8.2V79.1h133.3L165.7,165.5
			L165.7,165.5z"/>
		<rect id="Rectangle-30" x="61" y="131" width="15" height="25"/>
		<rect id="Rectangle-30_1_" x="91" y="121" width="15" height="35"/>
		<rect id="Rectangle-30_2_" x="121" y="111" width="15" height="45"/>
	</g>
</g>
</svg>
