<?xml version="1.0" encoding="utf-8"?>
<!-- Generator: Adobe Illustrator 22.0.1, SVG Export Plug-In . SVG Version: 6.00 Build 0)  -->
<svg version="1.1" id="图层_1" xmlns="http://www.w3.org/2000/svg" xmlns:xlink="http://www.w3.org/1999/xlink" x="0px" y="0px"
	 viewBox="0 0 200 200" style="enable-background:new 0 0 200 200;" xml:space="preserve">
<title>公告管理</title>
<desc>Created with Sketch.</desc>
<title>议题收集</title>
<desc>Created with Sketch.</desc>
<title>办公</title>
<desc>Created with Sketch.</desc>
<g>
	<path d="M78.9,23.2L78.9,23.2L78.9,23.2L78.9,23.2L75.9,22l-28.4-7.6c-5.4-1.4-8.9,0.6-10.3,5.9L3.4,162c-1.4,5.5,0.5,9,5.9,10.5
		l28.4,7.6c5.5,1.5,8.9-0.5,10.4-6.1L82,32.5C83.1,28.1,82.1,25,78.9,23.2z M65.1,72.5L65.1,72.5c-0.3,1.3-1,2.4-2,3.3
		c-0.9,0.7-1.9,1-2.8,0.8H60l-25.8-7c-1-0.3-1.7-0.9-2.1-2.1c-0.2-0.6-0.4-1.2-0.4-1.8c0-0.6,0-1.3,0.2-1.9c0.3-1.4,1-2.4,2-3.1
		c0.9-0.9,1.9-1.2,2.9-0.9l25.8,7h0.1c0.2,0.1,0.3,0.2,0.5,0.3c0.6,0.4,1.2,0.9,1.6,1.9c0.2,0.5,0.4,1.1,0.4,1.7
		C65.3,71.2,65.2,71.8,65.1,72.5z M69.4,55.3L69.4,55.3c0,0.4,0,0.7-0.2,1.1c-0.2,0.9-0.7,1.7-1.3,2.4c-0.2,0.3-0.4,0.5-0.7,0.8
		c-0.3,0.3-0.6,0.4-0.8,0.5c-0.6,0.3-1.3,0.5-1.9,0.4h-0.1l-25.8-6.9c-1-0.3-1.8-1.1-2.2-2.3c-0.3-0.8-0.4-1.7-0.3-2.6
		c0-0.4,0-0.7,0.1-1.1c0.1-0.4,0.3-0.7,0.5-1c0.4-0.9,0.9-1.6,1.6-2.2c1-0.8,2-1.1,3-0.7L67,50.6h0.1c0.6,0.2,1,0.7,1.4,1.2
		c0.2,0.3,0.4,0.6,0.6,0.9c0.2,0.6,0.4,1.2,0.4,1.8C69.5,54.8,69.4,55.1,69.4,55.3z"/>
	<path d="M188.5,24.7h-32.3c-4.5,0-8.1,3.6-8.1,8.1v145.2c0,4.5,3.6,8.1,8.1,8.1h32.3c4.5,0,8.1-3.6,8.1-8.1V32.8
		C196.6,28.3,192.9,24.7,188.5,24.7z"/>
	<path d="M129.3,24.7H97.1c-4.5,0-8.1,3.6-8.1,8.1v145.2c0,4.5,3.6,8.1,8.1,8.1h32.3c4.5,0,8.1-3.6,8.1-8.1V32.8
		C137.4,28.3,133.8,24.7,129.3,24.7z"/>
</g>
</svg>
