<?xml version="1.0" encoding="utf-8"?>
<!-- Generator: Adobe Illustrator 22.0.1, SVG Export Plug-In . SVG Version: 6.00 Build 0)  -->
<svg version="1.1" id="图层_1" xmlns="http://www.w3.org/2000/svg" xmlns:xlink="http://www.w3.org/1999/xlink" x="0px" y="0px"
	 viewBox="0 0 200 200" style="enable-background:new 0 0 200 200;" xml:space="preserve">
<title>公告管理</title>
<desc>Created with Sketch.</desc>
<title>议题收集</title>
<desc>Created with Sketch.</desc>
<title>办公</title>
<desc>Created with Sketch.</desc>
<title>导航检察课堂-党建制度</title>
<desc>Created with Sketch.</desc>
<g id="检察课堂-判断题" transform="translate(-100.000000, -1053.000000)">
	<g id="二级目录_x2F_流程配置-copy-6" transform="translate(70.000000, 1043.000000)">
		<g id="流程配置" transform="translate(30.000000, 10.000000)">
			<g id="齿轮2">
				<g>
					<path id="Combined-Shape" d="M56.8,164.4c-1.6-1.1-3.2-2.2-4.8-3.5l-12.2,4.4c-8.6-7.9-15.6-17.5-20.6-28.3l7.8-10.2
						c-0.7-2-1.4-3.9-1.9-6l-12.4-3.7c-1.1-5.7-1.7-11.6-1.7-17.6c0-5.9,0.6-11.8,1.7-17.4l12.4-3.7c0.6-2,1.2-4,1.9-5.9l-7.9-10.3
						C24.1,51.5,31,41.9,39.6,34L52,38.5c1.5-1.2,3.1-2.3,4.7-3.4l-0.4-13.3c10-5.6,21.2-9.4,33.1-10.7l7.7,11.3c0.6,0,1.3,0,1.9,0
						c1.1,0,2.2,0,3.3,0.1l7.7-11.3c12,1.4,23.2,5.2,33.2,11L143,36c1.3,0.9,2.6,1.8,3.8,2.8l13-4.7c8.6,8,15.6,17.7,20.5,28.6
						l-8.5,11.1c0.5,1.4,0.9,2.8,1.4,4.2l13.4,4c1.1,5.7,1.7,11.5,1.7,17.5c0,6.1-0.6,12-1.8,17.8l-13.3,3.9
						c-0.4,1.4-0.9,2.9-1.4,4.3l8.5,11c-4.9,10.9-12,20.6-20.6,28.6l-12.8-4.6c-1.3,1-2.5,1.9-3.8,2.9l0.4,13.7
						c-10,5.7-21.3,9.6-33.3,11l-7.5-11c-1.1,0-2.2,0.1-3.4,0.1c-0.7,0-1.3,0-2,0l-7.5,11c-12-1.3-23.2-5.1-33.3-10.7L56.8,164.4z
						 M99.6,136.1c20.2,0,36.5-16.3,36.5-36.5s-16.3-36.5-36.5-36.5S63.1,79.5,63.1,99.6S79.5,136.1,99.6,136.1z"/>
					<circle id="Oval-4-Copy-4" cx="99.6" cy="99.6" r="15.6"/>
				</g>
			</g>
		</g>
	</g>
</g>
</svg>
