<?xml version="1.0" encoding="utf-8"?>
<!-- Generator: Adobe Illustrator 22.0.1, SVG Export Plug-In . SVG Version: 6.00 Build 0)  -->
<svg version="1.1" id="图层_1" xmlns="http://www.w3.org/2000/svg" xmlns:xlink="http://www.w3.org/1999/xlink" x="0px" y="0px"
	 viewBox="0 0 200 200" style="enable-background:new 0 0 200 200;" xml:space="preserve">
<title>公告管理</title>
<desc>Created with Sketch.</desc>
<title>议题收集</title>
<desc>Created with Sketch.</desc>
<title>办公</title>
<desc>Created with Sketch.</desc>
<path d="M116.8,200H11.2c-6.1,0-11.1-5-11.1-11.1V11.1C0.1,5,5.1,0,11.2,0h122.2c9.4,0,16.7,7.2,16.7,16.7s-7.2,16.7-16.7,16.7H44.6
	c-6.1,0-11.1,5-11.1,11.1v111.1c0,6.1,5,11.1,11.1,11.1h88.9c9.4,0,16.7,7.2,16.7,16.7c0,9.4-7.2,16.7-16.7,16.7H116.8L116.8,200z
	 M45.1,55.6h49.4v11.1H45.1V55.6z M45.1,77.8h49.4v11.1H45.1V77.8z M45.1,100h49.4v44.4H45.1V100z"/>
<path d="M195.7,90l-28.9-26.1c-3.9-3.9-10.6-3.3-13.9,0.6c-3.9,3.9-3.3,10,0.6,13.9l13.9,12.2h-51.1c-5.6,0-10,4.4-10,9.4
	c0,5.6,4.4,9.4,10,9.4h50.6l-13.3,12.8c-3.9,3.9-4.4,10-0.6,13.9c2.2,2.2,4.4,3.3,7.2,3.3c2.2,0,5-1.1,6.7-2.8l28.9-26.1
	c2.8-2.8,4.4-6.1,4.4-10C200.1,96.1,198.4,92.8,195.7,90L195.7,90z"/>
</svg>
