<?xml version="1.0" encoding="utf-8"?>
<!-- Generator: Adobe Illustrator 22.0.1, SVG Export Plug-In . SVG Version: 6.00 Build 0)  -->
<svg version="1.1" id="图层_1" xmlns="http://www.w3.org/2000/svg" xmlns:xlink="http://www.w3.org/1999/xlink" x="0px" y="0px"
	 viewBox="0 0 200 200" style="enable-background:new 0 0 200 200;" xml:space="preserve">
<title>公告管理</title>
<desc>Created with Sketch.</desc>
<title>议题收集</title>
<desc>Created with Sketch.</desc>
<title>办公</title>
<desc>Created with Sketch.</desc>
<title>导航检察课堂-党建制度</title>
<desc>Created with Sketch.</desc>
<g>
	<polygon points="186.8,57.7 186.8,57.7 187.5,52.8 11.9,52.8 12.6,57.7 	"/>
	<path d="M189.7,71.5H9.7c-6,0-10.3,5.8-9.6,12.8l14.3,85.8c0.5,5.1,5,9.1,10,9.1H175c5,0,9.5-4.1,10-9.1l14.3-85.8
		C200.1,77.3,195.8,71.5,189.7,71.5z M140.5,128.7l-25.9,27.7v0c-2,2.2-5.3,2.2-7.3,0c-1-1.1-1.5-2.5-1.5-3.9c0-1.4,0.5-2.8,1.5-3.9
		l17.1-18.2H74.7c-2.9,0-5.2-2.5-5.2-5.5c0-3.1,2.3-5.5,5.2-5.5h49.7L107.3,101c-2-2.2-2-5.7,0-7.8s5.3-2.2,7.3,0l25.9,27.7
		C142.5,123.1,142.5,126.6,140.5,128.7z"/>
	<path d="M170.3,40.7L170.3,40.7l-86.6,0L69.5,22.1H29.5c-6,0-10.9,4.8-10.9,10.8v15.7h162.1C179.5,44,175.3,40.7,170.3,40.7z"/>
	<polygon points="190.6,66.5 191.2,61.8 8.3,61.8 8.8,66.5 	"/>
</g>
</svg>
