<?xml version="1.0" encoding="utf-8"?>
<!-- Generator: Adobe Illustrator 22.0.1, SVG Export Plug-In . SVG Version: 6.00 Build 0)  -->
<svg version="1.1" id="图层_1" xmlns="http://www.w3.org/2000/svg" xmlns:xlink="http://www.w3.org/1999/xlink" x="0px" y="0px"
	 viewBox="0 0 200 200" style="enable-background:new 0 0 200 200;" xml:space="preserve">
<title>公告管理</title>
<desc>Created with Sketch.</desc>
<title>议题收集</title>
<desc>Created with Sketch.</desc>
<title>办公</title>
<desc>Created with Sketch.</desc>
<path d="M177.8,178.9c0,7.1-5.6,13-12.3,13H11L32.8,84.1c0-7.1,5.6-13,12.3-13h141.7c6.7,0,12.3,5.9,12.3,13L177.8,178.9
	L177.8,178.9z M35.6,61.6h138.9v-13c0-7.1-5.6-13-12.3-13H88.2V23.7c0-7.1-5.6-13-12.3-13H14.3C7.6,10.7,2,16.6,2,23.7v155.2
	L23.8,74.6C23.3,66.9,28.9,61.6,35.6,61.6z"/>
</svg>
