<?xml version="1.0" encoding="utf-8"?>
<!-- Generator: Adobe Illustrator 22.0.1, SVG Export Plug-In . SVG Version: 6.00 Build 0)  -->
<svg version="1.1" id="图层_1" xmlns="http://www.w3.org/2000/svg" xmlns:xlink="http://www.w3.org/1999/xlink" x="0px" y="0px"
	 viewBox="0 0 200 200" style="enable-background:new 0 0 200 200;" xml:space="preserve">
<title>公告管理</title>
<desc>Created with Sketch.</desc>
<title>议题收集</title>
<desc>Created with Sketch.</desc>
<title>办公</title>
<desc>Created with Sketch.</desc>
<g id="首页-修改1.2" transform="translate(-165.000000, -255.000000)">
	<g id="总值电话-copy-2" transform="translate(165.000000, 255.000000)">
		<path id="Fill-40" d="M65.1,103.1c0-17.8,15.7-32.2,35.1-32.2c19.4,0,35.1,14.4,35.1,32.2c0,17.8-15.7,32.1-35.1,32.1
			C80.8,135.3,65.1,120.9,65.1,103.1z M94.5,17.1l5.6-0.1l5.7,0.1h0c1.8,0,3.7,0.1,5.7,0.2c9.7,0.4,21.9,1.2,33.6,3
			c11.6,1.8,22.8,4.7,31.1,9.3c7.4,4.2,13.6,9.7,17.8,16.5c3.9,6.2,6.1,13.5,6.1,21.6c0,4.5-0.7,8.9-1.9,13h0
			c-1.3,4.3-3.2,8.3-5.7,12v0c-1.1,1.6-2.5,2.9-4.2,3.7c-1.7,0.8-3.6,1.1-5.6,0.9l0,0c-2-0.2-3.8-0.8-5.3-1.9
			c-1.5-1.1-2.7-2.6-3.5-4.4c-6.5-15.2-15.7-28.5-27.8-37.7c-10.8-8.2-23.9-13.1-39.5-13.1h-6.5h-6.5c-15.6,0-28.7,4.9-39.5,13.1
			C42,62.5,32.9,75.9,26.3,91.1c-0.8,1.8-2,3.3-3.5,4.4c-1.5,1-3.3,1.7-5.3,1.9l0,0c-2,0.2-3.9-0.2-5.6-0.9c-1.7-0.8-3.1-2-4.2-3.7
			v0C5.4,89,3.4,85,2.1,80.7h0c-1.2-4.1-1.9-8.5-1.9-13c0-8.2,2.2-15.4,6.1-21.6c4.2-6.7,10.4-12.3,17.8-16.5
			c8.2-4.6,19.5-7.5,31.1-9.3c11.7-1.8,23.8-2.6,33.6-3L94.5,17.1z M100.6,55.8h-6.4c-16.9,0-30.4,6.3-41,16.5
			c-12.6,12.1-21.1,29.6-26,48.5c-4.1,15.5-6.9,31.8-2.9,44c3.8,11.6,14.3,19.6,36.9,19.6h39.4h39.4c22.6,0,33.1-8,36.9-19.6
			c4-12.2,1.1-28.5-2.9-44c-4.9-18.8-13.4-36.4-26-48.5c-10.6-10.2-24.1-16.5-41-16.5H100.6z"/>
	</g>
</g>
</svg>
