<?xml version="1.0" encoding="utf-8"?>
<!-- Generator: Adobe Illustrator 22.0.1, SVG Export Plug-In . SVG Version: 6.00 Build 0)  -->
<svg version="1.1" id="图层_1" xmlns="http://www.w3.org/2000/svg" xmlns:xlink="http://www.w3.org/1999/xlink" x="0px" y="0px"
	 viewBox="0 0 200 200" style="enable-background:new 0 0 200 200;" xml:space="preserve">
<title>公告管理</title>
<desc>Created with Sketch.</desc>
<title>议题收集</title>
<desc>Created with Sketch.</desc>
<title>办公</title>
<desc>Created with Sketch.</desc>
<g>
	<path d="M179.6,25.4H19c-8.9,0-16.1,7.2-16.1,16.1S10.1,57.6,19,57.6h160.6c8.9,0,16.1-7.2,16.1-16.1S188.4,25.4,179.6,25.4z"/>
	<path d="M147.5,85.7H19c-8.9,0-16.1,7.2-16.1,16.1s7.2,16.1,16.1,16.1h128.5c8.9,0,16.1-7.2,16.1-16.1S156.3,85.7,147.5,85.7z"/>
	<path d="M115.3,145.9H19c-8.9,0-16.1,7.2-16.1,16.1S10.1,178,19,178h96.4c8.9,0,16.1-7.2,16.1-16.1S124.2,145.9,115.3,145.9z"/>
</g>
</svg>
