<?xml version="1.0" encoding="utf-8"?>
<!-- Generator: Adobe Illustrator 22.0.1, SVG Export Plug-In . SVG Version: 6.00 Build 0)  -->
<svg version="1.1" id="图层_1" xmlns="http://www.w3.org/2000/svg" xmlns:xlink="http://www.w3.org/1999/xlink" x="0px" y="0px"
	 viewBox="0 0 200 200" style="enable-background:new 0 0 200 200;" xml:space="preserve">
<title>公告管理</title>
<desc>Created with Sketch.</desc>
<title>议题收集</title>
<desc>Created with Sketch.</desc>
<title>办公</title>
<desc>Created with Sketch.</desc>
<title>导航检察课堂-党建制度</title>
<desc>Created with Sketch.</desc>
<g id="会议管理" transform="translate(-163.000000, -109.000000)">
	<g id="会议审批" transform="translate(120.000000, 74.000000)">
		<g id="Path" transform="translate(43.000000, 35.000000)">
			<path d="M137.7,141c-17.1-18.7-6.7-31.7,4.2-48.7l5.5-8.2c4.3-7.8,6.7-16.8,6.6-26.3C153.8,29,129.6,4.7,100.4,4
				c-0.5,0-1,0-1.4,0C68.5,4,43.9,28.3,43.9,58.2c0,12.5,4.3,23.9,11.5,33.1c0.2,0.2,0.4,0.5,0.5,0.7c11.4,17.4,28.4,30.3,2.4,52
				c-1,0.9-2.7,2.5-4,2.9H22.3c-10.2,0-17.9,7.8-17.9,17.9v11.6c0,10,7.8,18.2,17.9,18.2H177c10.4,0,17.6-7.8,18-18.2v-11.6
				c0-10-7.8-17.9-18-17.9h-33.4C141.7,146.4,138.2,141.6,137.7,141z"/>
		</g>
	</g>
</g>
</svg>
