<?xml version="1.0" encoding="utf-8"?>
<!-- Generator: Adobe Illustrator 22.0.1, SVG Export Plug-In . SVG Version: 6.00 Build 0)  -->
<svg version="1.1" id="图层_1" xmlns="http://www.w3.org/2000/svg" xmlns:xlink="http://www.w3.org/1999/xlink" x="0px" y="0px"
	 viewBox="0 0 200 200" style="enable-background:new 0 0 200 200;" xml:space="preserve">
<title>公告管理</title>
<desc>Created with Sketch.</desc>
<title>议题收集</title>
<desc>Created with Sketch.</desc>
<title>办公</title>
<desc>Created with Sketch.</desc>
<title>导航检察课堂-党建制度</title>
<desc>Created with Sketch.</desc>
<g>
	<path d="M172.3,45.7H66.7c-12.1,0-21.8,9.6-21.8,21.5v106.3c0,11.9,9.7,21.5,21.8,21.5h108c10.9-2.4,19.4-10.8,19.4-22.7V67.2
		C194.1,55.2,184.4,45.7,172.3,45.7z M161.4,129.3h-31.6v31.1h-20.6v-29.9H76.4V109H108V76.7h21.8v31.1h31.6V129.3z"/>
	<path d="M22,130.2V34.6c0-7.2,4.8-11.9,12-11.9h96.3c7.2,0,12,4.8,12,11.9v1.2h14.4v-6c0-11.9-9.6-21.5-21.7-21.5h-106
		c-12,0-21.7,9.6-21.7,21.5v106.3c0,11.9,9.6,21.5,21.7,21.5h6L34,142.1C26.8,142.1,22,137.4,22,130.2z"/>
</g>
</svg>
