<?xml version="1.0" encoding="utf-8"?>
<!-- Generator: Adobe Illustrator 22.0.1, SVG Export Plug-In . SVG Version: 6.00 Build 0)  -->
<svg version="1.1" id="图层_1" xmlns="http://www.w3.org/2000/svg" xmlns:xlink="http://www.w3.org/1999/xlink" x="0px" y="0px"
	 viewBox="0 0 200 200" style="enable-background:new 0 0 200 200;" xml:space="preserve">
<title>公告管理</title>
<desc>Created with Sketch.</desc>
<title>议题收集</title>
<desc>Created with Sketch.</desc>
<title>办公</title>
<desc>Created with Sketch.</desc>
<title>导航检察课堂-党建制度</title>
<desc>Created with Sketch.</desc>
<g id="议题征集" transform="translate(-163.000000, -108.000000)">
	<g id="议题反馈" transform="translate(120.000000, 74.000000)">
		<g id="反馈管理" transform="translate(43.000000, 34.000000)">
			<path id="Shape" d="M132.6,6.7l22.9,22.7v11.4l-22.9,22.7L95.4,32.2l25.7-25.6H132.6z M84,43.6l37.2,31.2l-62.9,66.5h-5.7
				l-28.6-22.7v-11.4L84,43.6z M18.2,130l25.7,19.9L6.8,160L18.2,130z M79.8,139.8c0-5.4,3.6-9.8,8.1-9.8H189c4.4,0,8.1,4.4,8.1,9.8
				c0,5.4-3.6,9.8-8.1,9.8H87.8C83.4,149.6,79.8,145.2,79.8,139.8z M2.9,183.5c0-2.6,0.9-5.1,2.4-6.9c1.5-1.8,3.6-2.9,5.7-2.9h178
				c2.9,0,5.6,1.9,7,4.9c1.4,3,1.4,6.8,0,9.8c-1.4,3-4.1,4.9-7,4.9H11c-2.1,0-4.2-1-5.7-2.9C3.8,188.6,2.9,186.1,2.9,183.5
				L2.9,183.5z"/>
		</g>
	</g>
</g>
</svg>
