<?xml version="1.0" encoding="utf-8"?>
<!-- Generator: Adobe Illustrator 22.0.1, SVG Export Plug-In . SVG Version: 6.00 Build 0)  -->
<svg version="1.1" id="图层_1" xmlns="http://www.w3.org/2000/svg" xmlns:xlink="http://www.w3.org/1999/xlink" x="0px" y="0px"
	 viewBox="0 0 200 200" style="enable-background:new 0 0 200 200;" xml:space="preserve">
<title>公告管理</title>
<desc>Created with Sketch.</desc>
<title>议题收集</title>
<desc>Created with Sketch.</desc>
<title>办公</title>
<desc>Created with Sketch.</desc>
<title>导航检察课堂-党建制度</title>
<desc>Created with Sketch.</desc>
<g>
	<path d="M100.1,5.2c-6.4,0.3-11.5,5.5-11.6,11.9v31.1c0,4.2,2.3,8.2,5.9,10.3c3.7,2.1,8.2,2.1,11.9,0c3.7-2.1,5.9-6,5.9-10.3V29.5
		c34.5,5.7,59.6,35.6,59.3,70.6c0.2,19-7.3,37.2-20.7,50.6c-13.4,13.4-31.7,20.8-50.7,20.6c-39.3-0.1-71.1-31.9-71.2-71.2
		c-0.2-6.5-5.4-11.7-11.9-11.9c-6.4,0.3-11.6,5.4-11.9,11.9c0.1,52.4,42.5,94.8,94.9,94.9c52.4,0,94.9-42.5,94.9-94.9
		C195,47.7,152.5,5.2,100.1,5.2z"/>
	<path d="M37.5,46.3c2,2.2,49.2,59.1,51.5,62.6l0.5,0.8l0.9,0.4c2.7,1.6,5.7,2.6,8.8,2.9c3.1-0.2,6.2-1.2,8.9-2.8l1.1-0.8
		c2.5-2.5,3.8-5.8,3.8-9.3c0-0.2,0-0.4,0-0.5c0.1-1.7-0.3-3.5-1.2-5.1c-0.7-1.5-1.6-2.8-2.9-4c-1.5-1.2-12.8-10.9-31.5-26.9
		C63.4,52,47.7,38.6,46.4,37.4l-1-0.7c-2.5-1.2-5.4-0.9-7.5,1c-2,2-2.5,5-1.2,7.5L37.5,46.3z"/>
</g>
</svg>
