<?xml version="1.0" encoding="utf-8"?>
<!-- Generator: Adobe Illustrator 22.0.1, SVG Export Plug-In . SVG Version: 6.00 Build 0)  -->
<svg version="1.1" id="图层_1" xmlns="http://www.w3.org/2000/svg" xmlns:xlink="http://www.w3.org/1999/xlink" x="0px" y="0px"
	 viewBox="0 0 200 200" style="enable-background:new 0 0 200 200;" xml:space="preserve">
<title>公告管理</title>
<desc>Created with Sketch.</desc>
<title>议题收集</title>
<desc>Created with Sketch.</desc>
<title>办公</title>
<desc>Created with Sketch.</desc>
<title>导航检察课堂-党建制度</title>
<desc>Created with Sketch.</desc>
<path d="M99.9,11c-49.2,0-89.1,39.9-89.1,89.1s39.9,89.1,89.1,89.1s89.1-39.9,89.1-89.1S149.1,11,99.9,11z M158.5,81.5L103,139.9
	c-1.6,1.6-3.6,2.4-5.6,2.4c-2,0-4.1-0.8-5.6-2.4L60,106.5c-3.1-3.3-3.1-8.5,0-11.8c3.1-3.3,8.1-3.3,11.2,0l26.1,27.5l50-52.5
	c3.1-3.3,8.1-3.3,11.2,0C161.6,73,161.6,78.3,158.5,81.5z"/>
</svg>
