<?xml version="1.0" encoding="UTF-8"?>
<svg width="38px" height="40px" viewBox="0 0 38 40" version="1.1" xmlns="http://www.w3.org/2000/svg" xmlns:xlink="http://www.w3.org/1999/xlink">
    <!-- Generator: Sketch 48.2 (47327) - http://www.bohemiancoding.com/sketch -->
    <title>请假信息</title>
    <desc>Created with Sketch.</desc>
    <defs></defs>
    <g id="小图标" stroke="none" stroke-width="1" fill="none" fill-rule="evenodd" transform="translate(-40.000000, -23.000000)" opacity="0.7">
        <g id="请假信息" transform="translate(41.000000, 24.000000)">
            <path d="M33.0534575,2.69562499 C32.4670213,1.42024999 31.2773936,0 28.8598404,0 L4.79441491,0 C4.79441491,0 0.00239361701,0.147249999 0,4.68824998 L0,28.32425 C0,28.32425 0.129255319,31.2645 2.39601063,32.6039999 L2.39601063,33.0623749 C2.39601063,33.0623749 2.39840425,33.1241249 2.40797871,33.2119999 L2.39601063,33.212 L2.41037233,33.233375 C2.49414893,34.083625 3.11409573,38 7.38909575,38 L31.1816489,38 C35.3010638,38 36,33.06475 36,33.062375 L36,7.05612501 C36,7.05612501 35.743883,3.75249999 33.0534575,2.69562499 Z" id="Shape" stroke="#FFFFFF" fill-rule="nonzero"></path>
            <polygon id="Path" fill="#FFFFFF" points="33.5513298 35.58225 31.1553192 35.58225 4.79441491 35.58225 4.79441491 33.25 4.79441491 33.212 29.4319149 33.212 31.1553192 33.212 31.1553192 32.563625 31.1553191 4.78800002 33.5513298 4.78800002"></polygon>
            <polygon id="Path" fill="#FFFFFF" points="9.35904255 18.788625 19.5917553 8.6355 23.9720744 12.98175 13.7393617 23.13725 7.44414894 25.03725"></polygon>
            <path d="M22.7417553,5.51237502 C23.3449468,4.91387502 24.3287234,4.91387502 24.9319149,5.51237502 L27.1220744,7.68550001 C27.7252659,8.284 27.7252659,9.260125 27.1220744,9.858625 L25.7194149,11.250375 L21.3390957,6.90412501 L22.7417553,5.51237502 Z" id="Path" fill="#FFFFFF"></path>
        </g>
    </g>
</svg>