<?xml version="1.0" encoding="utf-8"?>
<!-- Generator: Adobe Illustrator 22.0.1, SVG Export Plug-In . SVG Version: 6.00 Build 0)  -->
<svg version="1.1" id="图层_1" xmlns="http://www.w3.org/2000/svg" xmlns:xlink="http://www.w3.org/1999/xlink" x="0px" y="0px"
	 viewBox="0 0 200 200" style="enable-background:new 0 0 200 200;" xml:space="preserve">
<title>公告管理</title>
<desc>Created with Sketch.</desc>
<title>议题收集</title>
<desc>Created with Sketch.</desc>
<title>办公</title>
<desc>Created with Sketch.</desc>
<title>导航检察课堂-党建制度</title>
<desc>Created with Sketch.</desc>
<g id="会议管理_x2F_签到统计_1_" transform="translate(-101.000000, -526.000000)">
	<g id="菜单_1_" transform="translate(0.000000, 118.000000)">
		<g id="系统管理_1_" transform="translate(0.000000, 72.000000)">
			<g id="二级目录_x2F_请假列表" transform="translate(70.000000, 326.000000)">
				<g id="请假" transform="translate(31.000000, 10.000000)">
					<path id="Shape" d="M77.4,144.4c0-6.8,1.1-13.4,3.2-19.5c2.1-6.3,5.1-11.9,8.9-17.2c3.9-5.2,8.3-9.8,13.6-13.9
						c5.1-4.1,11-7.2,17.2-9.7c0.4-0.9,0.7-1.8,1.3-3.3l0.9-2.5c0.1-0.8,0.4-1.6,0.7-2.2c1.3-0.4,2.4-1.1,3.4-2c1-0.8,1.8-2,2.6-3.4
						c0.7-1.4,1.3-3.5,1.5-6c0.1-1.8,0.1-3.4-0.1-4.7c-0.4-1.3-0.7-2.3-1.3-3.2c-0.6-0.9-1.3-1.7-2.1-2.2c0-4.9-0.4-9.6-0.9-14.2
						c-0.7-4.1-1.7-8.4-3.2-12.8c-1.4-4.5-3.8-8.7-6.9-12.3c-1.4-1.6-3.3-3.3-5.7-4.9c-2.4-1.6-5.1-3-8.2-4.3
						c-3.1-1.2-6.4-2.2-9.8-3C89.1,2.2,85.6,1.8,82,1.8c-2.8,0-5.7,0.2-8.7,0.7c-3.1,0.4-6.1,1.2-9.2,2.3C61.1,6,58,7.7,55.2,9.7
						c-2.8,2-5.4,4.6-7.9,7.9c-2.5,3.4-4.5,7.2-5.7,11.5c-1.3,4.3-2.1,8.4-2.6,12.1c-0.4,4.5-0.7,8.8-0.7,13.2
						c-1.1,1.2-1.8,2.3-2.4,3.7c-0.6,1.3-1,2.8-1.1,4.3c-0.1,1.6,0.1,3.4,0.7,5.4c0.6,2.1,1.4,3.5,2.2,4.6c0.8,1.1,1.7,2,2.4,2.5
						c1,0.5,1.8,0.9,2.6,1.2c0.6,1.8,1.3,3.7,1.8,5.4c0.6,1.6,1.3,3,2.1,4.5c0.7,1.4,1.7,2.6,2.6,3.4c2.1,1.7,4,3.3,5.7,4.9
						c1.7,1.6,2.6,3.8,2.9,6.4c0.1,2,0.1,3.5,0.1,5.1c0,1.5-0.4,2.9-1,4.3c-0.7,1.5-1.7,2.9-3.1,4.3c-1.4,1.4-3.3,2.9-6,4.5
						c-2.1,1.3-4.6,2.3-7.2,3.3c-2.6,0.9-5.4,1.7-8.2,2.5c-2.9,0.8-5.7,1.6-8.3,2.3c-2.6,0.9-5.1,2-7.3,3.3c-2.2,1.5-4.2,3-5.7,4.9
						c-1.5,1.8-2.5,4.2-3.1,7.1c-1.3,7.6-1.5,13.8-0.8,18.6c0.7,4.9,1.7,7.7,3.1,8.7c0.8,0.5,2.6,1.2,5.4,1.7
						c2.8,0.5,6.2,1.2,10.3,1.7c4.2,0.7,8.6,1.2,13.6,1.7c5,0.5,10,1.1,15,1.5c5.1,0.4,10,0.6,14.7,0.9c4.7,0.2,8.9,0.4,12.5,0.4
						h4.9c-2.9-4.9-5.3-10.1-6.9-15.6C78.2,156.2,77.4,150.4,77.4,144.4z"/>
					<path id="Shape_1_" d="M188.8,126.3c-2.7-6.3-6.4-11.7-11.1-16.5c-4.7-4.7-10.1-8.4-16.4-11.1c-6.3-2.7-12.9-4.1-20.1-4.1
						c-7.1,0-13.9,1.4-20.2,4.1c-6.3,2.7-11.7,6.4-16.4,11.1c-4.7,4.7-8.4,10.2-11.1,16.5c-2.7,6.3-4.1,12.9-4.1,20
						c0,7.1,1.4,13.8,4.1,20c2.7,6.3,6.4,11.7,11.1,16.5c4.7,4.7,10.1,8.4,16.4,11.1c6.3,2.7,13.1,4.1,20.2,4.1s13.8-1.4,20.1-4.1
						c6.3-2.7,11.7-6.4,16.4-11.1c4.7-4.7,8.4-10.2,11.1-16.5c2.7-6.3,4.1-12.9,4.1-20C192.9,139.3,191.5,132.6,188.8,126.3z
						 M154.2,167c-2,0-4-0.8-5.5-2.3l-15.5-15.5c-1.4-1.4-2.3-3.3-2.3-5.5v-31c0-4.3,3.5-7.7,7.7-7.7c4.3,0,7.7,3.5,7.7,7.7v27.8
						l13.2,13.2c3,3,3,7.9,0,10.9C158.1,166.2,156.1,167,154.2,167z"/>
				</g>
			</g>
		</g>
	</g>
</g>
</svg>
