<?xml version="1.0" encoding="utf-8"?>
<!-- Generator: Adobe Illustrator 22.0.1, SVG Export Plug-In . SVG Version: 6.00 Build 0)  -->
<svg version="1.1" id="图层_1" xmlns="http://www.w3.org/2000/svg" xmlns:xlink="http://www.w3.org/1999/xlink" x="0px" y="0px"
	 viewBox="0 0 200 200" style="enable-background:new 0 0 200 200;" xml:space="preserve">
<title>公告管理</title>
<desc>Created with Sketch.</desc>
<title>议题收集</title>
<desc>Created with Sketch.</desc>
<title>办公</title>
<desc>Created with Sketch.</desc>
<title>导航检察课堂-党建制度</title>
<desc>Created with Sketch.</desc>
<g>
	<path d="M50.7,12c-3-2.7-7-4.1-11.2-4h-19C11.9,8,5,14.4,5,22.2v16.5c0,7.8,6.9,14.2,15.5,14.2h19.4c8.6,0,15.5-6.4,15.5-14.2V22.2
		C55.4,18.4,53.7,14.7,50.7,12z"/>
	<path d="M190.9,12c-3-2.7-7-4.1-11.2-4H82.1c-8.5,0-15.5,6.3-15.5,14.2v16.5c0,3.8,1.6,7.4,4.5,10c2.9,2.7,6.8,4.1,10.9,4.1h97.6
		c4.2,0.1,8.2-1.4,11.2-4c3-2.7,4.7-6.3,4.7-10.1V22.2C195.5,18.3,193.8,14.7,190.9,12z"/>
	<path d="M39.9,75.2h-0.4h-19C11.9,75.2,5,81.6,5,89.4v16.5c0,3.8,1.6,7.3,4.5,10c2.9,2.7,6.9,4.1,11,4.1h19c4.2,0.1,8.2-1.4,11.2-4
		c3-2.7,4.7-6.3,4.7-10.1V89.4C55.4,81.6,48.5,75.2,39.9,75.2z"/>
	<path d="M190.9,79.3c-3-2.7-7-4.1-11.2-4H82.1c-8.5,0-15.5,6.3-15.5,14.1v16.5c0,3.7,1.6,7.3,4.5,10c2.9,2.7,6.8,4.1,10.9,4.1h97.6
		c4.2,0.1,8.2-1.4,11.2-4c3-2.7,4.7-6.3,4.7-10.1V89.4C195.5,85.6,193.8,81.9,190.9,79.3z"/>
	<path d="M39.9,148.1h-0.4h-19c-8.6,0-15.5,6.3-15.5,14.1v16.5c0,3.8,1.6,7.3,4.5,10s6.9,4.1,11,4.1h19c4.2,0.1,8.2-1.4,11.2-4
		s4.7-6.3,4.7-10.1v-16.5C55.4,154.4,48.5,148.1,39.9,148.1z"/>
	<path d="M190.9,152.1c-3-2.7-7-4.1-11.2-4H82.1c-8.5,0-15.5,6.3-15.5,14.1v16.5c0,3.7,1.6,7.3,4.5,10c2.9,2.7,6.8,4.1,10.9,4.1
		h97.6c4.2,0.1,8.2-1.4,11.2-4c3-2.7,4.7-6.3,4.7-10.1v-16.5C195.5,158.4,193.8,154.8,190.9,152.1z"/>
</g>
</svg>
