<?xml version="1.0" encoding="utf-8"?>
<!-- Generator: Adobe Illustrator 22.0.1, SVG Export Plug-In . SVG Version: 6.00 Build 0)  -->
<svg version="1.1" id="图层_1" xmlns="http://www.w3.org/2000/svg" xmlns:xlink="http://www.w3.org/1999/xlink" x="0px" y="0px"
	 viewBox="0 0 200 200" style="enable-background:new 0 0 200 200;" xml:space="preserve">
<title>公告管理</title>
<desc>Created with Sketch.</desc>
<title>议题收集</title>
<desc>Created with Sketch.</desc>
<title>办公</title>
<desc>Created with Sketch.</desc>
<title>导航检察课堂-党建制度</title>
<desc>Created with Sketch.</desc>
<g>
	<path d="M194.7,137.9h-53.1c-2.4,0-4.4,2-4.4,4.4c0,2.4,2,4.4,4.4,4.4h53.1c2.4,0,4.4-2,4.4-4.4
		C199.1,139.9,197.1,137.9,194.7,137.9z"/>
	<path d="M185.8,155.6h-44.2c-2.4,0-4.4,2-4.4,4.4c0,2.4,2,4.4,4.4,4.4h44.2c2.4,0,4.4-2,4.4-4.4
		C190.3,157.6,188.3,155.6,185.8,155.6z"/>
	<path d="M177,173.3h-35.4c-2.4,0-4.4,2-4.4,4.4c0,2.4,2,4.4,4.4,4.4H177c2.4,0,4.4-2,4.4-4.4C181.4,175.3,179.4,173.3,177,173.3z"
		/>
	<path d="M128.3,180.7c0-5.7,5-10.3,11.1-10.3c-6.1,0-11.1-4.6-11.1-10.3c0-5.7,5-10.3,11.1-10.3c-6.1,0-11.1-4.6-11.1-10.3
		c0-5.7,5-10.3,11.1-10.3h12.3c-13.2-13.4-30.6-22.6-50-25.5c18.2-7.1,31.1-24.7,31.1-45.3c0-26.8-21.8-48.7-48.7-48.7
		c-26.8,0-48.7,21.8-48.7,48.7c0,21.7,14.3,40.1,33.9,46.4C29.7,113.4,0,148.7,0,191h139.4C133.3,191,128.3,186.4,128.3,180.7z"/>
</g>
</svg>
