<?xml version="1.0" encoding="utf-8"?>
<!-- Generator: Adobe Illustrator 22.0.1, SVG Export Plug-In . SVG Version: 6.00 Build 0)  -->
<svg version="1.1" id="图层_1" xmlns="http://www.w3.org/2000/svg" xmlns:xlink="http://www.w3.org/1999/xlink" x="0px" y="0px"
	 viewBox="0 0 200 200" style="enable-background:new 0 0 200 200;" xml:space="preserve">
<title>公告管理</title>
<desc>Created with Sketch.</desc>
<g>
	<polygon points="83.8,33.5 83.8,42.5 186.7,42.5 186.7,132 83.8,132 83.8,141 195.6,141 195.6,33.5 	"/>
	<circle cx="39" cy="38" r="26.9"/>
	<path d="M102.8,92.7c4.5-0.6,7.8-4.4,7.8-8.9v-1c0-4.9-4-9-9-9H47.9H30H13.2c-0.3,0-0.7,0-1,0.1c-4.9,0.5-8.5,5-7.9,9.9l7,62.7
		c0.5,4.5,4.3,8,8.9,8h0.9v26.9c0,4.9,4,9,9,9h17.9c4.9,0,9-4,9-9V98.4L102.8,92.7z"/>
	<polygon points="102,119.2 128,99.1 144.6,116.1 173.6,66.6 165.9,62.1 142.8,101.5 128.8,87.2 96.5,112.1 	"/>
</g>
</svg>
