<?xml version="1.0" encoding="utf-8"?>
<!-- Generator: Adobe Illustrator 22.0.1, SVG Export Plug-In . SVG Version: 6.00 Build 0)  -->
<svg version="1.1" id="图层_1" xmlns="http://www.w3.org/2000/svg" xmlns:xlink="http://www.w3.org/1999/xlink" x="0px" y="0px"
	 viewBox="0 0 200 200" style="enable-background:new 0 0 200 200;" xml:space="preserve">
<title>公告管理</title>
<desc>Created with Sketch.</desc>
<title>议题收集</title>
<desc>Created with Sketch.</desc>
<title>办公</title>
<desc>Created with Sketch.</desc>
<path d="M176.2,18.9H25.1c-10.4,0-18.9,8.5-18.9,18.9v103.9c0,10.4,8.3,20.6,18.5,22.6l41.3,8.3c0,0-35.6,12.6-12.6,12.6h94.5
	c23,0-12.6-12.6-12.6-12.6l41.3-8.3c10.2-2,18.5-12.2,18.5-22.6V37.8C195.1,27.4,186.6,18.9,176.2,18.9z M110.5,140.8v-25.9h29.6
	l-39.5-39.5l-39.5,39.5h29.6v25.9H25.1V35.9h151.2v104.9H110.5z"/>
</svg>
