<?xml version="1.0" encoding="utf-8"?>
<!-- Generator: Adobe Illustrator 22.0.1, SVG Export Plug-In . SVG Version: 6.00 Build 0)  -->
<svg version="1.1" id="图层_1" xmlns="http://www.w3.org/2000/svg" xmlns:xlink="http://www.w3.org/1999/xlink" x="0px" y="0px"
	 viewBox="0 0 200 200" style="enable-background:new 0 0 200 200;" xml:space="preserve">
<title>公告管理</title>
<desc>Created with Sketch.</desc>
<title>议题收集</title>
<desc>Created with Sketch.</desc>
<title>办公</title>
<desc>Created with Sketch.</desc>
<path d="M181.8,26.6c-2.6,0-24.8-2.7-43.3-2.7c-16.4,0-27.4,3.2-31.1,5.4c-1.6,1.1-4.7,2.7-7.4,4.8c-2.6-2.7-5.8-3.7-6.9-4.8
	C89,27.1,78.4,23.9,62,23.9c-19,0-41.2,2.7-43.8,2.7c-7.9,0.5-14.2,7-14.2,15v119.3c0,8,6.3,14.4,14.2,15h0.5
	c2.1-0.5,13.2-1.6,25.3-2.7c21.6-1.6,30.1,0,33.2,0.5c1.6,0,3.7,1.1,5.8,1.6c4.7,1.6,10,3.2,15.8,3.2c4.7,0,10-1.6,14.8-3.2
	c3.7-1.1,7.4-2.1,9-2.1c0.5,0,1.1,0,1.6-0.5c24.8-3.7,54.4,2.1,54.4,2.1h1.1c7.9,0,14.8-6.4,14.8-15V41.6
	C196.1,33.5,189.7,27.1,181.8,26.6z M94.1,130.7c0,2.8-2.3,5.2-5.2,5.2H25c-2.8,0-5.2-2.3-5.2-5.2v-0.4c0-2.8,2.3-5.2,5.2-5.2h63.9
	c2.8,0,5.2,2.3,5.2,5.2V130.7z M94.1,98.7c0,2.8-2.3,5.2-5.2,5.2H25c-2.8,0-5.2-2.3-5.2-5.2v-0.4c0-2.8,2.3-5.2,5.2-5.2h63.9
	c2.8,0,5.2,2.3,5.2,5.2V98.7z M94.1,66.7c0,2.8-2.3,5.2-5.2,5.2H25c-2.8,0-5.2-2.3-5.2-5.2v-0.4c0-2.8,2.3-5.2,5.2-5.2h63.9
	c2.8,0,5.2,2.3,5.2,5.2V66.7z M184.1,98.7c0,2.8-2.3,5.2-5.2,5.2h-63.9c-2.8,0-5.2-2.3-5.2-5.2v-0.4c0-2.8,2.3-5.2,5.2-5.2H179
	c2.8,0,5.2,2.3,5.2,5.2V98.7z M184.1,66.7c0,2.8-2.3,5.2-5.2,5.2h-63.9c-2.8,0-5.2-2.3-5.2-5.2v-0.4c0-2.8,2.3-5.2,5.2-5.2H179
	c2.8,0,5.2,2.3,5.2,5.2V66.7z"/>
</svg>
