<?xml version="1.0" encoding="utf-8"?>
<!-- Generator: Adobe Illustrator 22.0.1, SVG Export Plug-In . SVG Version: 6.00 Build 0)  -->
<svg version="1.1" id="图层_1" xmlns="http://www.w3.org/2000/svg" xmlns:xlink="http://www.w3.org/1999/xlink" x="0px" y="0px"
	 viewBox="0 0 200 200" style="enable-background:new 0 0 200 200;" xml:space="preserve">
<title>公告管理</title>
<desc>Created with Sketch.</desc>
<title>议题收集</title>
<desc>Created with Sketch.</desc>
<title>办公</title>
<desc>Created with Sketch.</desc>
<title>导航检察课堂-党建制度</title>
<desc>Created with Sketch.</desc>
<g id="_x31_办公助理_x2F_待办任务详情页" transform="translate(-101.000000, -975.000000)">
	<g id="二级目录_x2F_备忘录" transform="translate(70.000000, 965.000000)">
		<g id="备忘录" transform="translate(31.000000, 10.000000)">
			<path id="Shape" d="M30.6,190.6c-1.4,0-2.6-1.2-2.6-2.6v-8.5c0-1.4,1.2-2.6,2.6-2.6h151.3V6.5c0-3.6-2.7-6.5-6.1-6.5h-27.7v75.7
				c0,1-1,1.6-1.8,1.1L127.6,65c-0.4-0.3-0.9-0.2-1.3,0l-16.9,11.7c-0.8,0.6-1.9-0.1-1.9-1.1V0H26.2c-3.4,0-6.1,2.9-6.1,6.5v186.2
				c0,3.6,2.7,6.5,6.1,6.5h149.6c3.4,0,6.1-2.9,6.1-6.5v-2.1L30.6,190.6L30.6,190.6z"/>
		</g>
	</g>
</g>
</svg>
