<?xml version="1.0" encoding="UTF-8"?>
<svg width="34px" height="32px" viewBox="0 0 34 32" version="1.1" xmlns="http://www.w3.org/2000/svg" xmlns:xlink="http://www.w3.org/1999/xlink">
    <!-- Generator: Sketch 48.2 (47327) - http://www.bohemiancoding.com/sketch -->
    <title>微平台 copy 2</title>
    <desc>Created with Sketch.</desc>
    <defs></defs>
    <g id="小图标" stroke="none" stroke-width="1" fill="none" fill-rule="evenodd" transform="translate(-167.000000, -81.000000)">
        <g id="微平台-copy-2" transform="translate(164.000000, 77.000000)">
            <g id="Group-3">
                <rect id="Rectangle" x="0" y="0" width="40" height="40"></rect>
                <path d="M19.493069,4 C20.4900605,4 21.1730922,4.37907435 21.8597379,4.75861269 C22.5463836,5.13768704 34.3987014,11.667788 34.8527007,11.9294745 C35.3067,12.1874493 35.8790553,12.4565596 35.9897318,13.3668948 C36.0710451,14.0531261 35.6536368,14.6298573 35.2954065,14.8497854 C34.8563146,15.1151839 20.8668121,23.4580675 20.4272685,23.7007308 C20.1246023,23.8673008 19.8770485,24 19.4966829,24 C19.1610396,24 18.843466,23.8640529 18.6401827,23.7424893 C18.3854011,23.5870549 4.24049978,15.1680779 3.86058595,14.9481499 C3.48022037,14.7282218 2.9964062,14.2957894 3.00002013,13.4388122 C3.00002013,12.7409813 3.44679157,12.304837 4.00830512,11.9939682 C4.4288756,11.7624406 16.6209023,5.02029927 17.2555978,4.6862313 C17.8871312,4.34891544 18.4852357,4 19.493069,4" id="Fill-48" fill="#FFFFFF" opacity="0.7"></path>
                <path d="M5.19066092,18.1785878 C4.84367467,17.982875 4.75523604,17.9015164 4.15421434,18.1785878 C3.8925082,18.2965578 3,18.6549879 3,19.8482481 C3,20.7165258 3.7300699,21.0821877 3.99944674,21.2412891 C4.26882359,21.3963225 17.3974477,29.0173683 18.02464,29.3794143 C18.6549909,29.7450762 18.9906967,30 19.4369508,30 C19.8832049,30 20.5541653,29.637954 20.9377001,29.4164777 C21.3176253,29.1950013 34.3289328,21.6512463 34.8523451,21.3411794 C35.3762086,21.0306606 35.9479012,20.7459053 35.9957303,19.859096 C36.0435593,18.9727386 35.6857438,18.651372 35.1140513,18.3191575 C34.5428099,17.986491 34.2143236,18.0642337 33.5614119,18.3706846 C32.2488202,18.9876544 24.4707331,24.0779941 23.0435322,24.809318 C20.1819108,26.2764857 19.916595,26.2764857 19.5145602,26.2764857 C19.1603544,26.2764857 18.6441616,26.198743 16.1732947,24.8983605 C14.7682034,24.1634207 5.49658638,18.3521529 5.19066092,18.1785878" id="Fill-50" fill="#FFFFFF" opacity="0.7"></path>
                <path d="M4.52660299,24.0293862 C4.1700076,24.1183432 3.83987826,24.3298429 3.60446958,24.4859715 C3.20190681,24.7451268 3.01246551,25.2647989 3.00085758,25.7136686 C2.97439152,26.5219971 3.5663956,26.9413657 3.96106498,27.1637581 C4.35573437,27.3861506 18.0024731,35.1136073 18.541545,35.4176949 C19.080617,35.7217825 19.4409269,36 19.9799988,36 C20.5186065,36 20.9476353,35.7145207 21.467206,35.4176949 C21.9872409,35.120869 35.2128442,27.6389518 35.7858112,27.3049092 C36.3587783,26.9708667 37,26.5297127 37,25.7508853 C37,24.971604 36.7724847,24.3225812 35.7858112,24.1183432 C35.5773329,24.0743186 35.1747702,24.2372551 34.8790003,24.3970145 C34.4044684,24.648908 22.2718672,31.2294551 21.8052287,31.4740868 C21.2169391,31.7863439 20.1504032,32.4094967 20.0027504,32.4094967 C19.8583478,32.4094967 18.7880973,31.7931519 18.4124649,31.5707594 C17.9040379,31.2703027 5.99152289,24.3411895 5.7640076,24.2109311 C5.53602799,24.0811265 4.89480631,23.9367983 4.52660299,24.0293862" id="Fill-52" fill="#FFFFFF" opacity="0.7"></path>
            </g>
        </g>
    </g>
</svg>