<?xml version="1.0" encoding="utf-8"?>
<!-- Generator: Adobe Illustrator 22.0.1, SVG Export Plug-In . SVG Version: 6.00 Build 0)  -->
<svg version="1.1" id="图层_1" xmlns="http://www.w3.org/2000/svg" xmlns:xlink="http://www.w3.org/1999/xlink" x="0px" y="0px"
	 viewBox="0 0 200 200" style="enable-background:new 0 0 200 200;" xml:space="preserve">
<title>公告管理</title>
<desc>Created with Sketch.</desc>
<title>议题收集</title>
<desc>Created with Sketch.</desc>
<title>办公</title>
<desc>Created with Sketch.</desc>
<title>导航检察课堂-党建制度</title>
<desc>Created with Sketch.</desc>
<g>
	<path d="M185.2,48.2h-57.8c-2.7,0-4.8,2.2-4.8,4.8s2.2,4.8,4.8,4.8h57.8c2.7,0,4.8-2.2,4.8-4.8S187.8,48.2,185.2,48.2z"/>
	<path d="M175.6,67.5h-48.1c-2.7,0-4.8,2.2-4.8,4.8c0,2.7,2.2,4.8,4.8,4.8h48.1c2.7,0,4.8-2.2,4.8-4.8
		C180.4,69.6,178.2,67.5,175.6,67.5z"/>
	<path d="M165.9,86.7h-38.5c-2.7,0-4.8,2.2-4.8,4.8c0,2.7,2.2,4.8,4.8,4.8h38.5c2.7,0,4.8-2.2,4.8-4.8
		C170.7,88.9,168.6,86.7,165.9,86.7z"/>
	<path d="M167.7,154.1c-11.4-9.7-31.3-22.7-39.2-24.4l-0.6-0.1l-0.6,0.1c-4.4,0.7-7.1,3.6-9.5,6.3c-3.1,3.5-5.1,5.4-9.5,4.8
		c-1.3-0.2-7-2.5-24.9-23.9l-7.6-9.3C58,85.1,56.9,79.1,57,77.7c0.3-4.4,2.6-5.9,6.6-8.2c3.1-1.8,6.6-3.8,8.1-7.9l0.2-0.5l0-0.6
		c0-7.9-8.8-30.1-15.9-42.8c-0.8-1.9-3-4.9-9.2-4.9c-12.5,0-34.3,12.6-36.7,27.4c-3.3,21.1,10.9,53.5,38,86.7l10,12.2
		c27.1,33.2,56.1,53.6,77.6,54.7l0.9,0h0l0,0c14.1,0,29.6-16.8,33.2-28.2C172.2,158.5,169.3,155.2,167.7,154.1z"/>
</g>
</svg>
