<?xml version="1.0" encoding="utf-8"?>
<!-- Generator: Adobe Illustrator 22.0.1, SVG Export Plug-In . SVG Version: 6.00 Build 0)  -->
<svg version="1.1" id="图层_1" xmlns="http://www.w3.org/2000/svg" xmlns:xlink="http://www.w3.org/1999/xlink" x="0px" y="0px"
	 viewBox="0 0 200 200" style="enable-background:new 0 0 200 200;" xml:space="preserve">
<title>公告管理</title>
<desc>Created with Sketch.</desc>
<title>议题收集</title>
<desc>Created with Sketch.</desc>
<title>办公</title>
<desc>Created with Sketch.</desc>
<title>导航检察课堂-党建制度</title>
<desc>Created with Sketch.</desc>
<path d="M198.7,177.1l-32.4-83.7c-0.4-0.9-1.2-1.5-2.1-1.5h-11.3c-1,0-1.8,0.6-2.2,1.6l-16.2,44.6L88.5,25.7c-0.7-1.6-2.3-2.7-4-2.7
	H63.4c-1.8,0-3.4,1.1-4.1,2.8l-57,148.8c-0.5,1.3-0.3,2.8,0.5,4c0.8,1.2,2.2,1.9,3.6,1.9h20.9c1.8,0,3.5-1.2,4.1-2.9l15.3-42.2h56.1
	l16.3,42.3c0.4,1.1,1.3,2,2.4,2.5c0.3,0.2,0.7,0.3,1.1,0.3h0.5h10.6h11.7c1.4,0,2.8-0.7,3.6-1.9c0.8-1.2,1-2.7,0.4-4.1l-6.6-16.1
	l1.1-3.3h29.9l8.7,23.8c0.3,0.9,1.2,1.6,2.2,1.6h11.9c0.8,0,1.5-0.4,1.9-1.1C198.9,178.7,199,177.9,198.7,177.1z M55.4,110.7
	l14.1-37.8c1.7-4.6,3.2-9.2,4.5-13.8c1.7,4.9,3.7,10.4,5.9,16.3l13.3,35.3H55.4z M148.6,141.2l7.5-21.3c0.9-2.6,1.7-5.2,2.4-7.8
	c0.9,2.8,2,5.8,3.1,9.2l7.1,19.9H148.6z"/>
</svg>
