<?xml version="1.0" encoding="utf-8"?>
<!-- Generator: Adobe Illustrator 22.0.1, SVG Export Plug-In . SVG Version: 6.00 Build 0)  -->
<svg version="1.1" id="图层_1" xmlns="http://www.w3.org/2000/svg" xmlns:xlink="http://www.w3.org/1999/xlink" x="0px" y="0px"
	 viewBox="0 0 200 200" style="enable-background:new 0 0 200 200;" xml:space="preserve">
<title>公告管理</title>
<desc>Created with Sketch.</desc>
<title>议题收集</title>
<desc>Created with Sketch.</desc>
<title>办公</title>
<desc>Created with Sketch.</desc>
<path id="Shape-Copy" d="M123.1,126.8c0-13.8,21.3-26.2,21.3-59.5c0-11.6-6.2-55.1-46.5-55.1c-41.2,0-46.5,43.5-46.5,55.1
	c0,33.3,21.3,45.8,21.3,59.5c0,9.8-22.1,14.2-38.5,23.1c-14.6,8-29.2,13.8-29.2,29.3c0,11.6,11.2,9.3,22.2,9.3h143.6
	c10.6,0,21.2,1.8,21.2-9.3c-0.9-15.5-15.5-21.3-30.1-29.3C145.7,141,123.1,136.5,123.1,126.8z"/>
</svg>
