<?xml version="1.0" encoding="utf-8"?>
<!-- Generator: Adobe Illustrator 22.0.1, SVG Export Plug-In . SVG Version: 6.00 Build 0)  -->
<svg version="1.1" id="图层_1" xmlns="http://www.w3.org/2000/svg" xmlns:xlink="http://www.w3.org/1999/xlink" x="0px" y="0px"
	 viewBox="0 0 200 200" style="enable-background:new 0 0 200 200;" xml:space="preserve">
<title>公告管理</title>
<desc>Created with Sketch.</desc>
<g>
	<path d="M5.8,72.5c-2.5,0-4.5,2-4.5,4.5v44.7c0,2.5,2,4.5,4.5,4.5s4.5-2,4.5-4.5V76.9C10.3,74.5,8.3,72.5,5.8,72.5z"/>
	<path d="M122.1,26.4l-66.8,38c-1.5-0.6-3.1-0.9-4.7-0.9H23.7c-2.5,0-4.5,2-4.5,4.5v62.6c0,2.5,2,4.5,4.5,4.5h26.8
		c1.7,0,3.2-0.3,4.7-0.8l66.9,38c1.3,0.8,2.9,1.2,4.4,1.2c4.9,0,8.9-4,8.9-8.9V34.2c0-1.5-0.4-3.1-1.2-4.4
		C131.8,25.5,126.4,24,122.1,26.4z"/>
	<rect x="153.3" y="99.3" width="44.7" height="8.9"/>
	<rect x="152.6" y="68" transform="matrix(0.9486 -0.3164 0.3164 0.9486 -14.1326 57.8798)" width="37.2" height="8.9"/>
	<rect x="166.7" y="116.4" transform="matrix(0.3162 -0.9487 0.9487 0.3162 -11.0586 254.733)" width="8.9" height="37.2"/>
</g>
</svg>
