<?xml version="1.0" encoding="utf-8"?>
<!-- Generator: Adobe Illustrator 22.0.1, SVG Export Plug-In . SVG Version: 6.00 Build 0)  -->
<svg version="1.1" id="图层_1" xmlns="http://www.w3.org/2000/svg" xmlns:xlink="http://www.w3.org/1999/xlink" x="0px" y="0px"
	 viewBox="0 0 200 200" style="enable-background:new 0 0 200 200;" xml:space="preserve">
<title>公告管理</title>
<desc>Created with Sketch.</desc>
<title>议题收集</title>
<desc>Created with Sketch.</desc>
<title>办公</title>
<desc>Created with Sketch.</desc>
<g id="首页-修改1.2-copy-4_1_" transform="translate(-164.000000, -429.000000)">
	<g id="OCR识别" transform="translate(164.000000, 429.000000)">
		<path id="Shape" d="M169.2,2.9c3.6,0,6.9,0.7,10,2.1c3.1,1.4,5.8,3.2,8.2,5.6c2.3,2.3,4.2,5.1,5.6,8.2s2.1,6.4,2.1,10v116.4
			c0,3.6-0.7,6.9-2.1,10s-3.2,5.8-5.6,8.2c-2.3,2.3-5.1,4.2-8.2,5.6c-3.1,1.4-6.4,2.1-10,2.1h-25.8v-25.9h12.8
			c3.6,0,6.6-1.2,9.2-3.7c2.6-2.5,3.8-5.5,3.8-9.1V67.6c0-3.6-1.3-6.7-3.8-9.2c-2.6-2.6-5.6-3.8-9.2-3.8H52.9
			c-3.6,0-6.7,1.3-9.2,3.8c-2.6,2.6-3.8,5.6-3.8,9.2v12.8H14V28.8c0-3.6,0.7-6.9,2.1-10c1.4-3.1,3.2-5.8,5.6-8.2
			C24,8.2,26.7,6.3,29.8,5c3.1-1.4,6.4-2.1,10-2.1H169.2z M104.5,93.5c3.6,0,6.9,0.7,10,2.1c3.1,1.4,5.8,3.2,8.2,5.6
			c2.3,2.3,4.2,5.1,5.6,8.2c1.4,3.1,2.1,6.4,2.1,10V171c0,3.6-0.7,6.9-2.1,10c-1.4,3.1-3.2,5.8-5.6,8.2c-2.3,2.3-5.1,4.2-8.2,5.6
			c-3.1,1.4-6.4,2.1-10,2.1H27c-3.6,0-7-0.7-10.1-2.1c-3.2-1.4-5.9-3.2-8.3-5.6c-2.3-2.3-4.2-5.1-5.6-8.2C1.7,178,1,174.6,1,171
			v-51.7c0-3.6,0.7-6.9,2.1-10c1.4-3.1,3.2-5.8,5.6-8.2c2.3-2.3,5.1-4.2,8.3-5.6c3.2-1.4,6.5-2.1,10.1-2.1H104.5z M104.5,145.2
			c0-3.6-1.3-6.6-3.8-9.1c-2.6-2.5-5.6-3.7-9.2-3.7H39.8c-3.6,0-6.6,1.2-9.1,3.7c-2.5,2.5-3.7,5.5-3.7,9.1v13c0,3.6,1.2,6.6,3.7,9.1
			c2.5,2.5,5.5,3.7,9.1,3.7h51.7c3.6,0,6.6-1.2,9.2-3.7c2.6-2.5,3.8-5.5,3.8-9.1V145.2z"/>
	</g>
</g>
</svg>
