<?xml version="1.0" encoding="utf-8"?>
<!-- Generator: Adobe Illustrator 22.0.1, SVG Export Plug-In . SVG Version: 6.00 Build 0)  -->
<svg version="1.1" id="图层_1" xmlns="http://www.w3.org/2000/svg" xmlns:xlink="http://www.w3.org/1999/xlink" x="0px" y="0px"
	 viewBox="0 0 200 200" style="enable-background:new 0 0 200 200;" xml:space="preserve">
<title>公告管理</title>
<desc>Created with Sketch.</desc>
<title>议题收集</title>
<desc>Created with Sketch.</desc>
<title>办公</title>
<desc>Created with Sketch.</desc>
<g>
	<path d="M180.4,116.2c-10.4-4.9-25-7.3-25-12.7c0-7.6,13.8-14.4,13.8-32.7c0-6.3-4-30.3-30.2-30.3c-1.1,0-2.2,0.1-3.3,0.1
		c3.3,8.4,4.2,16.7,4.2,20.6c0,27.2-17.4,37.3-17.4,48.6c0,8,18.5,11.6,31.5,18.9c5.4,3,10.8,5.6,15.2,8.7h17c6.9,0,13.8,1,13.8-5.1
		C199.4,123.8,189.9,120.6,180.4,116.2z"/>
	<path d="M148.7,128c-12.4-6.9-30.1-10.4-30.1-18c0-10.7,16.6-20.4,16.6-46.3c0-9-4.8-42.9-36.3-42.9c-32.1,0-36.3,33.9-36.3,42.9
		c0,25.9,16.6,35.6,16.6,46.3c0,7.6-17.3,11.1-30,18c-11.4,6.2-22.8,10.7-22.8,22.8c0,9,8.7,7.3,17.3,7.3h111.9
		c8.3,0,16.5,1.4,16.5-7.3C171.5,138.8,160.1,134.3,148.7,128z"/>
	<path d="M44,128.5c13.4-7.3,31.5-10.9,31.5-18.9c0-11.2-17.4-21.4-17.4-48.6c0-3.9,0.7-12.2,4-20.7c-0.5,0-1.1,0-1.6,0
		c-26.8,0-30.2,23.9-30.2,30.3c0,18.3,13.8,25.1,13.8,32.7c0,5.4-14.4,7.8-25,12.7c-9.5,4.4-19,7.6-19,16.1c0,6.3,7.2,5.1,14.4,5.1
		h14.4C33.1,134.1,38.5,131.5,44,128.5z"/>
</g>
</svg>
