<?xml version="1.0" encoding="utf-8"?>
<!-- Generator: Adobe Illustrator 22.0.0, SVG Export Plug-In . SVG Version: 6.00 Build 0)  -->
<svg version="1.1" id="图层_1" xmlns="http://www.w3.org/2000/svg" xmlns:xlink="http://www.w3.org/1999/xlink" x="0px" y="0px"
	 viewBox="0 0 200 200" style="enable-background:new 0 0 200 200;" xml:space="preserve">
<style type="text/css">
	.st0{fill:none;stroke:#000000;stroke-width:3;}
</style>
<title>操作统计</title>
<desc>Created with Sketch.</desc>
<g id="Artboard" transform="translate(-61.000000, -123.000000)">
	<g id="操作统计" transform="translate(61.000000, 123.000000)">
		<g id="Combined-Shape">
			<g>
				<path id="path-1" d="M17,23h166c1.7,0,3,1.3,3,3v123.2c0,1.5-1.2,2.8-2.7,3l-83.2,8.8l-83.5-8.8c-1.5-0.2-2.7-1.4-2.7-3V26
					C14,24.3,15.3,23,17,23z M30.1,39.1v96.7h139.8V39.1H30.1z"/>
			</g>
			<path class="st0" d="M100.1,159.5l83-8.8c0.8-0.1,1.3-0.7,1.3-1.5V26c0-0.8-0.7-1.5-1.5-1.5H17c-0.8,0-1.5,0.7-1.5,1.5v123.2
				c0,0.8,0.6,1.4,1.3,1.5L100.1,159.5z M28.6,37.6h142.8v99.7H28.6V37.6z"/>
		</g>
		<path id="Triangle-5" d="M102.3,148.2l50.7,24.8c0.2,0.1,0.4,0.4,0.2,0.7c-0.1,0.2-0.3,0.3-0.4,0.3H49.2c-0.3,0-0.5-0.2-0.5-0.5
			c0-0.2,0.1-0.4,0.3-0.4l50.7-24.8C100.5,147.8,101.5,147.8,102.3,148.2z"/>
		<rect id="Rectangle-31" x="65" y="87" width="12" height="30"/>
		<rect id="Rectangle-31_1_" x="92" y="77" width="12" height="40"/>
		<rect id="Rectangle-31_2_" x="119" y="67" width="12" height="50"/>
	</g>
</g>
</svg>
