<?xml version="1.0" encoding="utf-8"?>
<!-- Generator: Adobe Illustrator 22.0.0, SVG Export Plug-In . SVG Version: 6.00 Build 0)  -->
<svg version="1.1" id="图层_1" xmlns="http://www.w3.org/2000/svg" xmlns:xlink="http://www.w3.org/1999/xlink" x="0px" y="0px"
	 viewBox="0 0 200 200" style="enable-background:new 0 0 200 200;" xml:space="preserve">
<title>机构设置</title>
<desc>Created with Sketch.</desc>
<g id="Artboard" transform="translate(-50.000000, -101.000000)">
	<g id="机构设置" transform="translate(50.000000, 101.000000)">
		<path id="Combined-Shape" d="M95.1,3v171.2h14.3V17.3l67.7,35.7v121.2h14.3L192,192H6v-17.8h14.3V36.6L95.1,3z M45.2,52.9v17.8H63
			V52.9H45.2z M45.2,77.9v17.8H63V77.9H45.2z M45.2,102.8v17.8H63v-17.8H45.2z M45.2,131.4v17.8H63v-17.8H45.2z M45.2,159.9v17.8H63
			v-17.8H45.2z M134.3,159.9v17.8h17.8v-17.8H134.3z M134.3,131.4v17.8h17.8v-17.8H134.3z M134.3,102.8v17.8h17.8v-17.8H134.3z
			 M134.3,77.9v17.8h17.8V77.9H134.3z M134.3,52.9v17.8h17.8V52.9H134.3z"/>
	</g>
</g>
</svg>
