<?xml version="1.0" encoding="utf-8"?>
<!-- Generator: Adobe Illustrator 22.0.1, SVG Export Plug-In . SVG Version: 6.00 Build 0)  -->
<svg version="1.1" id="图层_1" xmlns="http://www.w3.org/2000/svg" xmlns:xlink="http://www.w3.org/1999/xlink" x="0px" y="0px"
	 viewBox="0 0 200 200" style="enable-background:new 0 0 200 200;" xml:space="preserve">
<title>公告管理</title>
<desc>Created with Sketch.</desc>
<title>议题收集</title>
<desc>Created with Sketch.</desc>
<title>办公</title>
<desc>Created with Sketch.</desc>
<title>导航检察课堂-党建制度</title>
<desc>Created with Sketch.</desc>
<g id="检察课堂-判断题" transform="translate(-101.000000, -827.000000)">
	<g id="二级目录_x2F_模块配置-copy" transform="translate(70.000000, 815.000000)">
		<g id="导航检查课堂-党建业务" transform="translate(31.000000, 12.000000)">
			<path id="Shape_1_" d="M2.9,182.9c0,7.4,5.7,13.1,13.1,13.1h165.9c7.4,0,13.1-5.7,13.1-13.1V91.2H2.9V182.9z M85.9,108.7h26.2
				c2.6,0,4.4,1.7,4.4,4.4c0,2.6-1.7,4.4-4.4,4.4H85.9c-2.6,0-4.4-1.7-4.4-4.4C81.5,110.4,83.2,108.7,85.9,108.7z M181.9,47.6H16
				c-7.4,0-13.1,5.7-13.1,13.1v21.8H195V60.7C195,53.2,189.3,47.6,181.9,47.6z M59.7,38.8c2.6,0,4.4-1.7,4.4-4.4V19.6
				c0-3.9,3.5-7,7.4-7h55c3.9,0,7.4,3.1,7.4,7v14.8c0,2.6,1.7,4.4,4.4,4.4c2.6,0,4.4-1.7,4.4-4.4V19.6c0-8.7-7.4-15.7-16.2-15.7h-55
				c-8.7,0-16.2,7-16.2,15.7v14.8C55.3,37.1,57,38.8,59.7,38.8z"/>
		</g>
	</g>
</g>
</svg>
