<?xml version="1.0" encoding="utf-8"?>
<!-- Generator: Adobe Illustrator 22.0.1, SVG Export Plug-In . SVG Version: 6.00 Build 0)  -->
<svg version="1.1" id="图层_1" xmlns="http://www.w3.org/2000/svg" xmlns:xlink="http://www.w3.org/1999/xlink" x="0px" y="0px"
	 viewBox="0 0 200 200" style="enable-background:new 0 0 200 200;" xml:space="preserve">
<title>公告管理</title>
<desc>Created with Sketch.</desc>
<title>议题收集</title>
<desc>Created with Sketch.</desc>
<g id="后台首页-2版" transform="translate(-30.000000, -701.000000)">
	<g id="菜单" transform="translate(0.000000, 118.000000)">
		<g id="检查课堂" transform="translate(0.000000, 571.000000)">
			<g transform="translate(30.000000, 12.000000)">
				<g>
					<g>
						<g id="Line-5">
							<path d="M191.7,177.9H8c-4,0-7.3-3.2-7.3-7.3s3.2-7.3,7.3-7.3h183.8c4,0,7.3,3.2,7.3,7.3S195.8,177.9,191.7,177.9z"/>
						</g>
						<g id="Combined-Shape">
							<path d="M148.4,97.7c3-4.8,4.7-10.5,4.7-16.5c0-17.4-14.1-31.4-31.4-31.4S90.2,63.9,90.2,81.2s14.1,31.4,31.4,31.4
								c6.1,0,11.7-1.7,16.5-4.7c0,0,0.1,0.1,0.1,0.1l19.3,19.3c2.8,2.8,7.4,2.8,10.3,0c2.8-2.8,2.8-7.4,0-10.3l-19.3-19.3
								C148.5,97.8,148.4,97.8,148.4,97.7z M22.5,20.8h154.8c5.3,0,9.7,4.3,9.7,9.7v125.7H12.8V30.4C12.8,25.1,17.1,20.8,22.5,20.8z
								"/>
						</g>
					</g>
				</g>
			</g>
		</g>
	</g>
</g>
</svg>
