<?xml version="1.0" encoding="utf-8"?>
<!-- Generator: Adobe Illustrator 22.0.1, SVG Export Plug-In . SVG Version: 6.00 Build 0)  -->
<svg version="1.1" id="图层_1" xmlns="http://www.w3.org/2000/svg" xmlns:xlink="http://www.w3.org/1999/xlink" x="0px" y="0px"
	 viewBox="0 0 200 200" style="enable-background:new 0 0 200 200;" xml:space="preserve">
<title>公告管理</title>
<desc>Created with Sketch.</desc>
<title>议题收集</title>
<desc>Created with Sketch.</desc>
<title>办公</title>
<desc>Created with Sketch.</desc>
<path d="M198.6,94.7l-49.9-62.3c-1.2-1.5-3-2.3-4.9-2.3H56.6c-1.9,0-3.7,0.9-4.9,2.3L1.9,94.7c-0.9,1.1-1.4,2.5-1.4,3.9v56.1
	c0,6.9,5.6,12.5,12.5,12.5h174.6c6.9,0,12.5-5.6,12.5-12.5V98.6C200,97.2,199.5,95.8,198.6,94.7z M187.5,104.8h-43.6L119,129.8H81.5
	l-24.9-24.9H13v-4l46.6-58.3h81.3l46.6,58.3L187.5,104.8L187.5,104.8z"/>
</svg>
