<?xml version="1.0" encoding="utf-8"?>
<!-- Generator: Adobe Illustrator 22.0.1, SVG Export Plug-In . SVG Version: 6.00 Build 0)  -->
<svg version="1.1" id="图层_1" xmlns="http://www.w3.org/2000/svg" xmlns:xlink="http://www.w3.org/1999/xlink" x="0px" y="0px"
	 viewBox="0 0 200 200" style="enable-background:new 0 0 200 200;" xml:space="preserve">
<title>公告管理</title>
<desc>Created with Sketch.</desc>
<title>议题收集</title>
<desc>Created with Sketch.</desc>
<title>办公</title>
<desc>Created with Sketch.</desc>
<path d="M2.2,90.8C1.1,91.8,0,93.5,0,95.7c0,1.6,0.5,3.3,2.2,4.9l33.9,35c1.1,0.5,2.7,1.6,4.9,1.6c1.6,0,3.8-0.5,4.9-2.2l35.5-35
	c1.1-1.1,2.2-2.7,2.2-4.9s-0.5-3.8-2.2-4.9L45.9,55.8c-1.1-1.1-2.7-2.2-4.9-2.2c-1.6,0-3.3,0.5-4.9,2.2C36.1,55.8,2.2,90.8,2.2,90.8
	z M194.6,7.1c0-1.6-0.5-3.3-2.2-4.9c-1.1-1.1-3.3-2.2-4.9-2.2h-54.1c-1.6,0-3.3,0.5-4.9,2.2c-1.1,1.1-2.2,3.3-2.2,4.9v13.7H95.7
	c-1.6,0-3.3,0.5-4.9,2.2c-1.1,1.1-2.2,3.3-2.2,4.9v136.7c0,1.6,0.5,3.3,2.2,4.9c1.1,1.1,3.3,2.2,4.9,2.2h30.6v20.2
	c0,1.6,0.5,3.3,2.2,4.9c1.1,1.1,3.3,2.2,4.9,2.2h54.1c1.6,0,3.3-0.5,4.9-2.2c1.1-1.1,2.2-3.3,2.2-4.9v-44.3c0-1.6-0.5-3.3-2.2-4.9
	c-1.1-1.1-3.3-2.2-4.9-2.2h-54.1c-1.6,0-3.3,0.5-4.9,2.2c-1.1,1.1-2.2,3.3-2.2,4.9v3.3h-13.7c-1.6,0-3.3-0.5-4.9-2.2
	c-1.1-1.1-2.2-3.3-2.2-4.9V44.3c0-1.6,0.5-3.3,2.2-4.9c1.1-1.1,3.3-2.2,4.9-2.2h13.7v13.7c0,1.6,0.5,3.3,2.2,4.9
	c1.1,1.1,3.3,2.2,4.9,2.2h54.1c1.6,0,3.3-0.5,4.9-2.2c1.1-1.1,2.2-3.3,2.2-4.9C194.6,50.8,194.6,7.1,194.6,7.1z"/>
</svg>
