<?xml version="1.0" encoding="utf-8"?>
<!-- Generator: Adobe Illustrator 22.0.1, SVG Export Plug-In . SVG Version: 6.00 Build 0)  -->
<svg version="1.1" id="图层_1" xmlns="http://www.w3.org/2000/svg" xmlns:xlink="http://www.w3.org/1999/xlink" x="0px" y="0px"
	 viewBox="0 0 200 200" style="enable-background:new 0 0 200 200;" xml:space="preserve">
<title>公告管理</title>
<desc>Created with Sketch.</desc>
<title>议题收集</title>
<desc>Created with Sketch.</desc>
<title>办公</title>
<desc>Created with Sketch.</desc>
<title>导航检察课堂-党建制度</title>
<desc>Created with Sketch.</desc>
<g id="检察课堂-判断题_1_" transform="translate(-102.000000, -789.000000)">
	<g id="二级目录_x2F_流程配置" transform="translate(70.000000, 777.000000)">
		<g id="导航检察课堂-党建制度" transform="translate(32.000000, 12.000000)">
			<path id="Shape" d="M197.3,40.8c0-10.3-15.1-9.9-15.1,0v133.9c0,3.4-2.8,6.2-6.2,6.2h-136c-9,0-19.5-7.3-19.5-19.9
				c0-10.8,7.4-19.9,16.2-19.9h124c4.2,0,7.5-3.4,7.5-7.5V11.6c0-4.2-3.4-7.6-7.5-7.6c0,0,0,0,0,0h0H50.8C25.7,4,5.3,24.4,5.3,49.5
				v111.9c0,1.1,0.8,7.3,0.9,7.5C9.4,184.4,21.8,196,36.6,196H176c11.8,0,21.3-9.5,21.3-21.3L197.3,40.8L197.3,40.8z"/>
			<path id="Shape_3_" d="M157.9,153.3H55.4c-10.1,0-9.6,10.7,0,10.7h102.5C167.4,164,168.2,153.3,157.9,153.3z"/>
		</g>
	</g>
</g>
</svg>
