<?xml version="1.0" encoding="utf-8"?>
<!-- Generator: Adobe Illustrator 22.0.1, SVG Export Plug-In . SVG Version: 6.00 Build 0)  -->
<svg version="1.1" id="图层_1" xmlns="http://www.w3.org/2000/svg" xmlns:xlink="http://www.w3.org/1999/xlink" x="0px" y="0px"
	 viewBox="0 0 200 200" style="enable-background:new 0 0 200 200;" xml:space="preserve">
<title>公告管理</title>
<desc>Created with Sketch.</desc>
<title>议题收集</title>
<desc>Created with Sketch.</desc>
<title>办公</title>
<desc>Created with Sketch.</desc>
<path d="M152.9,109.8c-23.1,0-41.9,18.8-41.9,41.9c0,23.1,18.8,41.9,41.9,41.9c23.1,0,41.9-18.8,41.9-41.9
	C194.8,128.6,176,109.8,152.9,109.8z M179.7,142.7l-30.5,27.4c-0.5,0.5-1.3,0.8-2,0.8c-0.8,0-1.6-0.3-2.1-0.9l-19.6-19.6
	c-1.2-1.2-1.2-3.1,0-4.2c1.2-1.2,3.1-1.2,4.2,0l17.6,17.6l28.4-25.5c1.2-1.1,3.1-1,4.2,0.2C181.1,139.7,181,141.6,179.7,142.7
	L179.7,142.7z M48.8,39.3c4.9,0,8.9-3.9,8.9-8.6V13.4c0-4.8-4-8.6-8.9-8.6s-8.9,3.9-8.9,8.6v17.2C39.9,35.4,43.9,39.3,48.8,39.3z
	 M137.9,39.3c4.9,0,8.9-3.9,8.9-8.6V13.4c0-4.8-4-8.6-8.9-8.6c-4.9,0-8.9,3.9-8.9,8.6v17.2C129,35.4,133,39.3,137.9,39.3z
	 M93.3,39.3c4.9,0,8.9-3.9,8.9-8.6V13.4c0-4.8-4-8.6-8.9-8.6c-4.9,0-8.9,3.9-8.9,8.6v17.2C84.4,35.4,88.4,39.3,93.3,39.3z"/>
<path d="M104.8,159.8H38.4c-4.1,0-7.4-3.2-7.4-7.2c0-4,3.3-7.2,7.4-7.2h66.2c1-7.3,3.6-14.2,7.5-20.1H39.9c-4.9,0-8.9-3.9-8.9-8.6
	c0-4.8,4-8.6,8.9-8.6h91.7c6.5-3.2,13.8-5,21.5-5c9.7,0,18.8,2.8,26.4,7.7V30.7c0-4.8-4-8.6-8.9-8.6h-14.8v8.6
	c0,9.5-8,17.2-17.8,17.2s-17.8-7.7-17.8-17.2V22h-8.9v8.6c0,9.5-8,17.2-17.8,17.2c-9.8,0-17.8-7.7-17.8-17.2V22h-8.9v8.6
	c0,9.5-8,17.2-17.8,17.2C39,47.9,31,40.2,31,30.7V22H16.1c-4.9,0-8.9,3.9-8.9,8.6v149.3c0,4.8,4,8.6,8.9,8.6h104.4
	C112.3,181.2,106.6,171.2,104.8,159.8L104.8,159.8z M39.9,70.8h106.9c4.9,0,8.9,3.9,8.9,8.6c0,4.8-4,8.6-8.9,8.6H39.9
	c-4.9,0-8.9-3.9-8.9-8.6C31,74.7,35,70.8,39.9,70.8z"/>
</svg>
