<?xml version="1.0" encoding="utf-8"?>
<!-- Generator: Adobe Illustrator 22.0.1, SVG Export Plug-In . SVG Version: 6.00 Build 0)  -->
<svg version="1.1" id="图层_1" xmlns="http://www.w3.org/2000/svg" xmlns:xlink="http://www.w3.org/1999/xlink" x="0px" y="0px"
	 viewBox="0 0 200 200" style="enable-background:new 0 0 200 200;" xml:space="preserve">
<title>公告管理</title>
<desc>Created with Sketch.</desc>
<title>议题收集</title>
<desc>Created with Sketch.</desc>
<title>办公</title>
<desc>Created with Sketch.</desc>
<title>导航检察课堂-党建制度</title>
<desc>Created with Sketch.</desc>
<path d="M193.2,73.8c0-21.7-17.6-39.2-39.2-39.2c-5.8,0-11.2,1.3-16.2,3.5C136.8,17.4,119.7,1,98.7,1C78.1,1,61.2,16.9,59.7,37.1
	c-4.3-1.6-8.9-2.5-13.7-2.5c-21.7,0-39.2,17.6-39.2,39.2c0,10.9,4.4,20.7,11.6,27.8c-7.2,7.1-11.6,16.9-11.6,27.8
	c0,21.6,17.6,39.2,39.2,39.2c5,0,9.7-1,14.1-2.7c3,18.7,19.1,33,38.7,33c19.7,0,35.9-14.5,38.7-33.4c4.7,1.9,9.8,3,15.1,3
	c21.7,0,39.2-17.6,39.2-39.2c0-10.5-4.2-20.1-10.9-27.1C188.5,95.2,193.2,85.1,193.2,73.8z M100,136.9c-20.4,0-36.9-16.5-36.9-36.9
	c0-20.4,16.5-36.9,36.9-36.9c20.4,0,36.9,16.5,36.9,36.9C136.9,120.4,120.4,136.9,100,136.9z"/>
</svg>
