<?xml version="1.0" encoding="UTF-8"?>
<svg width="42px" height="54px" viewBox="0 0 42 54" version="1.1" xmlns="http://www.w3.org/2000/svg" xmlns:xlink="http://www.w3.org/1999/xlink">
    <!-- Generator: Sketch 48.2 (47327) - http://www.bohemiancoding.com/sketch -->
    <title>孵떤줍icon</title>
    <desc>Created with Sketch.</desc>
    <defs></defs>
    <g id="Artboard" stroke="none" stroke-width="1" fill="none" fill-rule="evenodd" transform="translate(-100.000000, -22.000000)" fill-opacity="0.8">
        <g id="孵떤줍icon" transform="translate(100.000000, 22.000000)" fill="#FFFFFF">
            <path d="M0,0 L42,0 L42,54 L0,54 L0,0 Z M8,15 C9.1045695,15 10,14.1045695 10,13 C10,11.8954305 9.1045695,11 8,11 C6.8954305,11 6,11.8954305 6,13 C6,14.1045695 6.8954305,15 8,15 Z M13,12 L13,14 L36,14 L36,12 L13,12 Z M13,19 L13,21 L36,21 L36,19 L13,19 Z M13,26 L13,28 L36,28 L36,26 L13,26 Z M13,33 L13,35 L36,35 L36,33 L13,33 Z M13,40 L13,42 L36,42 L36,40 L13,40 Z M8.365,18.43 L7,22 L7.625,22 L7.95,21.105 L9.445,21.105 L9.77,22 L10.395,22 L9.03,18.43 L8.365,18.43 Z M7.35,25.43 L7.35,29 L8.99,29 C9.37,29 9.67,28.93 9.88,28.79 C10.125,28.62 10.25,28.355 10.25,27.995 C10.25,27.755 10.19,27.56 10.075,27.42 C9.955,27.275 9.78,27.18 9.545,27.135 C9.725,27.065 9.86,26.97 9.955,26.84 C10.05,26.7 10.1,26.53 10.1,26.33 C10.1,26.06 10.005,25.845 9.82,25.685 C9.62,25.515 9.34,25.43 8.985,25.43 L7.35,25.43 Z M8.9,32.36 C8.33,32.36 7.895,32.545 7.595,32.925 C7.33,33.255 7.2,33.69 7.2,34.22 C7.2,34.76 7.325,35.19 7.58,35.51 C7.87,35.88 8.315,36.07 8.91,36.07 C9.295,36.07 9.625,35.96 9.9,35.74 C10.195,35.505 10.38,35.18 10.46,34.76 L9.89,34.76 C9.82,35.03 9.7,35.235 9.53,35.37 C9.37,35.49 9.16,35.555 8.905,35.555 C8.515,35.555 8.225,35.43 8.04,35.19 C7.87,34.965 7.785,34.64 7.785,34.22 C7.785,33.81 7.87,33.49 8.045,33.26 C8.235,33 8.515,32.875 8.89,32.875 C9.14,32.875 9.345,32.925 9.505,33.035 C9.67,33.145 9.78,33.315 9.84,33.55 L10.41,33.55 C10.355,33.19 10.2,32.9 9.94,32.69 C9.67,32.47 9.32,32.36 8.9,32.36 Z M7.35,39.43 L7.35,43 L8.655,43 C9.235,43 9.67,42.84 9.97,42.52 C10.255,42.215 10.4,41.78 10.4,41.215 C10.4,40.645 10.255,40.21 9.97,39.91 C9.67,39.59 9.235,39.43 8.655,39.43 L7.35,39.43 Z" id="Combined-Shape"></path>
            <path d="M7.935,25.91 L7.935,26.93 L8.83,26.93 C9.08,26.93 9.255,26.885 9.36,26.805 C9.46,26.72 9.515,26.585 9.515,26.4 C9.515,26.23 9.46,26.105 9.36,26.03 C9.25,25.95 9.08,25.91 8.84,25.91 L7.935,25.91 Z" id="Path"></path>
            <path d="M7.935,27.41 L7.935,28.52 L8.905,28.52 C9.125,28.52 9.3,28.485 9.425,28.415 C9.585,28.325 9.665,28.185 9.665,27.985 C9.665,27.78 9.605,27.635 9.49,27.545 C9.37,27.455 9.18,27.41 8.92,27.41 L7.935,27.41 Z" id="Path"></path>
            <polygon id="Path" points="8.125 20.625 9.27 20.625 8.71 19.06 8.69 19.06"></polygon>
            <path d="M7.935,39.93 L7.935,42.5 L8.545,42.5 C8.99,42.5 9.315,42.395 9.52,42.19 C9.72,41.98 9.82,41.655 9.82,41.215 C9.82,40.765 9.72,40.435 9.52,40.235 C9.315,40.03 8.99,39.93 8.545,39.93 L7.935,39.93 Z" id="Path"></path>
        </g>
    </g>
</svg>