<?xml version="1.0" encoding="utf-8"?>
<!-- Generator: Adobe Illustrator 22.0.1, SVG Export Plug-In . SVG Version: 6.00 Build 0)  -->
<svg version="1.1" id="图层_1" xmlns="http://www.w3.org/2000/svg" xmlns:xlink="http://www.w3.org/1999/xlink" x="0px" y="0px"
	 viewBox="0 0 200 200" style="enable-background:new 0 0 200 200;" xml:space="preserve">
<title>公告管理</title>
<desc>Created with Sketch.</desc>
<title>议题收集</title>
<desc>Created with Sketch.</desc>
<title>办公</title>
<desc>Created with Sketch.</desc>
<title>导航检察课堂-党建制度</title>
<desc>Created with Sketch.</desc>
<g>
	<path d="M145.7,17.9c-10.8,0-24.4,9.8-24.4,15.7c0.3,2.9,13.4,14.3,24.4,14.3c10,0,23.5-11.3,24.4-14.3
		C169.8,30.2,157.1,17.9,145.7,17.9z M145.7,42.1c-5.1,0-9.2-3.7-9.2-8.3c0-4.6,4.1-8.3,9.2-8.3c5.1,0,9.2,3.7,9.2,8.3
		C154.9,38.3,150.8,42.1,145.7,42.1z"/>
	<path d="M145.7,27.8c-3.6,0-6.5,2.7-6.5,5.9c0,3.3,2.9,5.9,6.5,5.9c3.6,0,6.5-2.7,6.5-5.9C152.3,30.4,149.3,27.8,145.7,27.8z"/>
	<path d="M22.5,3.2v193.6h159.6V3.2H22.5z M50.8,82.2h42.6v9.6H50.8V82.2z M135.9,149.1H50.8v-9.6h85.1V149.1z M135.9,120.4H50.8
		v-9.6h85.1V120.4z M145.7,51.2c-11.5,0-27.5-12-27.5-17.6c0-8.8,16.1-19.1,27.5-19.1c12.4,0,27.5,13.4,27.5,19.1
		C173.2,38.4,156.8,51.2,145.7,51.2z"/>
</g>
</svg>
