<?xml version="1.0" encoding="utf-8"?>
<!-- Generator: Adobe Illustrator 22.0.1, SVG Export Plug-In . SVG Version: 6.00 Build 0)  -->
<svg version="1.1" id="图层_1" xmlns="http://www.w3.org/2000/svg" xmlns:xlink="http://www.w3.org/1999/xlink" x="0px" y="0px"
	 viewBox="0 0 200 200" style="enable-background:new 0 0 200 200;" xml:space="preserve">
<title>公告管理</title>
<desc>Created with Sketch.</desc>
<title>议题收集</title>
<desc>Created with Sketch.</desc>
<title>办公</title>
<desc>Created with Sketch.</desc>
<path d="M195.7,197.1c-5,5-12.5,5-17.5,0l-38.8-38.8c-33.8,25-80,23.8-111.2-5c-35-32.5-37.5-90-3.8-125s90-36.2,125-1.2
	c31.2,31.2,33.8,80,7.5,113.7l38.8,38.8C200.7,184.6,200.7,192.1,195.7,197.1z M137,52.1c-25-35-76.2-35-101.2,0
	c-16.2,21.2-16.2,52.5,0,73.8c25,35,76.2,35,101.2,0C153.2,103.3,153.2,73.3,137,52.1z"/>
</svg>
