<?xml version="1.0" encoding="utf-8"?>
<!-- Generator: Adobe Illustrator 22.0.1, SVG Export Plug-In . SVG Version: 6.00 Build 0)  -->
<svg version="1.1" id="图层_1" xmlns="http://www.w3.org/2000/svg" xmlns:xlink="http://www.w3.org/1999/xlink" x="0px" y="0px"
	 viewBox="0 0 200 200" style="enable-background:new 0 0 200 200;" xml:space="preserve">
<title>公告管理</title>
<desc>Created with Sketch.</desc>
<title>议题收集</title>
<desc>Created with Sketch.</desc>
<title>办公</title>
<desc>Created with Sketch.</desc>
<path d="M163.7,150c-6.9,0-13.2,2.9-17.6,7.5L95,132c3.1-6.4,4.8-13.6,4.8-21.3c0-7.8-1.8-15.1-5-21.6l46-26.3
	c6.1,5.4,14,8.6,22.8,8.6c19,0,34.3-15.4,34.3-34.3c0-19-15.4-34.3-34.3-34.3s-34.3,15.4-34.3,34.3c0,4.9,1,9.5,2.9,13.7L86.4,77
	c-8.9-9.4-21.6-15.3-35.6-15.3c-27.1,0-49.1,22-49.1,49.1c0,27.1,22,49.1,49.1,49.1c14.1,0,26.9-6,35.8-15.6l52.8,26.4
	c-0.2,1.3-0.3,2.6-0.3,3.9c0,13.5,11,24.5,24.5,24.5c13.5,0,24.5-11,24.5-24.5C188.2,161,177.2,150,163.7,150z"/>
</svg>
