<?xml version="1.0" encoding="utf-8"?>
<!-- Generator: Adobe Illustrator 22.0.1, SVG Export Plug-In . SVG Version: 6.00 Build 0)  -->
<svg version="1.1" id="图层_1" xmlns="http://www.w3.org/2000/svg" xmlns:xlink="http://www.w3.org/1999/xlink" x="0px" y="0px"
	 viewBox="0 0 200 200" style="enable-background:new 0 0 200 200;" xml:space="preserve">
<title>公告管理</title>
<desc>Created with Sketch.</desc>
<title>议题收集</title>
<desc>Created with Sketch.</desc>
<title>办公</title>
<desc>Created with Sketch.</desc>
<g id="首页-修改1.2-copy-4" transform="translate(-168.000000, -175.000000)">
	<g id="共享文件夹" transform="translate(168.000000, 175.000000)">
		<path id="Combined-Shape" d="M187.5,30.7c6.9,0,12.5,5.7,12.5,12.6v132.4c0,7-5.6,12.6-12.5,12.6h-175c-6.9,0-12.5-5.6-12.5-12.6
			V24.4c0-6.9,5.6-12.6,12.5-12.6H75l18.8,18.9H187.5z M117.7,135.7l-34.8-17.7c0.9-2,1.4-4.1,1.4-6.4c0-2.4-0.6-4.7-1.6-6.7L119,90
			c2.9,3.7,7.3,6.1,12.3,6.1c8.7,0,15.7-7,15.7-15.7c0-8.7-7-15.7-15.7-15.7c-8.7,0-15.7,7-15.7,15.7c0,0.8,0.1,1.6,0.2,2.4
			L77.4,98.7C74.9,97,71.9,96,68.6,96c-8.7,0-15.7,7-15.7,15.7c0,8.7,7,15.7,15.7,15.7c3.5,0,6.7-1.2,9.3-3.1l37.9,19.3
			c0.2,8.5,7.1,15.3,15.6,15.3c8.7,0,15.7-7,15.7-15.7c0-8.7-7-15.7-15.7-15.7C125.4,127.4,120.3,130.8,117.7,135.7z"/>
	</g>
</g>
</svg>
