<?xml version="1.0" encoding="utf-8"?>
<!-- Generator: Adobe Illustrator 22.0.1, SVG Export Plug-In . SVG Version: 6.00 Build 0)  -->
<svg version="1.1" id="图层_1" xmlns="http://www.w3.org/2000/svg" xmlns:xlink="http://www.w3.org/1999/xlink" x="0px" y="0px"
	 viewBox="0 0 200 200" style="enable-background:new 0 0 200 200;" xml:space="preserve">
<title>公告管理</title>
<desc>Created with Sketch.</desc>
<title>议题收集</title>
<desc>Created with Sketch.</desc>
<title>办公</title>
<desc>Created with Sketch.</desc>
<path d="M111.8,141.1c-6.3,0-10.5,4.2-10.5,10.5c0,6.3,4.2,10.5,10.5,10.5c6.3,0,10.5-4.2,10.5-10.5
	C122.4,145.4,118.1,141.1,111.8,141.1z M55.6,99.3c-6.3,0-10.5,4.2-10.5,10.5c0,6.3,4.2,10.5,10.5,10.5c6.3,0,10.5-4.2,10.5-10.5
	C66.1,103.5,61.9,99.3,55.6,99.3z M150.3,28.8H15.1c-4.2,0-7.6,1.5-10.2,4.5C2.3,36.3,1,40.2,1,44.9v136.9c0,4.4,1.5,8.2,4.6,11.4
	c3.1,3.2,6.6,4.9,10.5,4.9l136.2,0c4.5,0,8.4-1.6,11.4-4.8c3.1-3.2,4.6-6.6,4.6-10.4V48.6c0-5.8-1.4-10.6-4.3-14.3
	C161.2,30.7,156.6,28.8,150.3,28.8z M111.8,174.5c-12.6,0-22.9-9.4-22.9-22c0-2.1,0.4-4.1,0.9-6.1l-22.3-16.6
	c-3.6,2.3-7.4,2.8-12,2.8c-12.6,0-22.9-10.2-22.9-22.9C32.7,97.2,43,87,55.6,87c6.2,0,11.4,1.6,15.6,5.7L90,81.1
	c-0.8-2.3-1.3-3.9-1.3-6.5c0-12.6,10.3-22.9,22.9-22.9c12.6,0,22.9,10.2,22.9,22.9c0,12.6-10.2,22.9-22.9,22.9
	c-5.9,0-10.7-1.4-14.8-5l-19.4,11.5c0.6,2,1,4.2,1,6.4c0,3.8-0.1,6.4-1.7,9.5l19.3,15c4.1-4.2,9.5-6,15.8-6
	c12.6,0,22.8,10.2,22.8,22.8C134.7,164.3,124.4,174.5,111.8,174.5z M191.6,7.8c-4.1-4.5-13.2-6.8-20-6.8L59.5,1
	c-3.7,0-6.9,1.3-9.6,3.9c-2.7,2.6-4,5.8-4,9.5v2.2h111.6c10.1,0,14.8,0.4,19.1,4.1c4.2,3.7,4.5,7.5,4.5,16.6l0,130.6h3.1
	c3.7,0,6.9-1.3,9.6-3.9c2.7-2.6,4-5.8,4-9.5l0-127.8C197.8,20.8,195.8,12.4,191.6,7.8z M111.6,85.1c6.3,0,10.5-4.2,10.5-10.5
	c0-6.3-4.2-10.5-10.5-10.5c-6.3,0-10.5,4.2-10.5,10.5C101,80.9,105.3,85.1,111.6,85.1z"/>
</svg>
