<?xml version="1.0" encoding="utf-8"?>
<!-- Generator: Adobe Illustrator 22.0.1, SVG Export Plug-In . SVG Version: 6.00 Build 0)  -->
<svg version="1.1" id="图层_1" xmlns="http://www.w3.org/2000/svg" xmlns:xlink="http://www.w3.org/1999/xlink" x="0px" y="0px"
	 viewBox="0 0 200 200" style="enable-background:new 0 0 200 200;" xml:space="preserve">
<title>公告管理</title>
<desc>Created with Sketch.</desc>
<title>议题收集</title>
<desc>Created with Sketch.</desc>
<title>办公</title>
<desc>Created with Sketch.</desc>
<title>导航检察课堂-党建制度</title>
<desc>Created with Sketch.</desc>
<g>
	<path d="M138,50.8c4.6,0,8.4-3.6,8.4-7.9V9.2c0-4.3-3.7-7.8-8.4-7.8c-4.6,0-8.4,3.5-8.4,7.8v33.7C129.6,47.3,133.3,50.8,138,50.8z"
		/>
	<path d="M61.1,50.8c4.6,0,8.4-3.6,8.4-7.9V9.2c0-4.3-3.7-7.8-8.4-7.8c-4.6,0-8.4,3.5-8.4,7.8v33.7C52.7,47.3,56.5,50.8,61.1,50.8z"
		/>
	<path d="M177,28.1h-26.4v17.6c0,6.8-5.7,12.4-12.7,12.4s-12.7-5.6-12.7-12.4V28H73.9v17.6c0,6.8-5.7,12.4-12.7,12.4
		s-12.7-5.6-12.7-12.4V28H22.1c-6,0-10.8,4.7-10.8,10.6v150.8c0,5.8,4.9,10.6,10.8,10.6H177c6,0,10.8-4.7,10.8-10.6V38.6
		C187.8,32.8,182.9,28.1,177,28.1z M164.8,186.6H34.1c-5.1,0-9.2-4-9.2-8.9v-94h149l0.1,94C174,182.6,169.9,186.6,164.8,186.6z"/>
	<path d="M130.7,122.6c-0.1-1-0.6-2-1.3-2.7L115.5,106c-1.8-1.8-4.8-1.8-6.7,0c-0.9,0.9-1.4,2.1-1.4,3.3c0,1.3,0.5,2.4,1.4,3.3
		l5.8,5.8H75.2c-2.6,0-4.7,2.1-4.7,4.7s2.1,4.7,4.7,4.7h50.9c1.9,0,3.6-1.2,4.4-2.9c0.2-0.4,0.2-0.8,0.3-1c0-0.2,0.1-0.4,0.1-0.8
		L130.7,122.6L130.7,122.6z"/>
	<path d="M126.1,141.6H75.2c-1.9,0-3.6,1.2-4.4,2.9c-0.2,0.4-0.2,0.8-0.2,1c0,0.2-0.1,0.4-0.1,0.8l0,0.6l0.1,0.1
		c0.2,1,0.6,1.9,1.3,2.6l13.9,13.9c0.9,0.9,2.1,1.4,3.3,1.4c1.2,0,2.4-0.5,3.3-1.4c1.8-1.8,1.8-4.8,0-6.7l-5.8-5.8h39.5
		c2.6,0,4.7-2.1,4.7-4.7C130.8,143.8,128.7,141.6,126.1,141.6z"/>
</g>
</svg>
