<?xml version="1.0" encoding="utf-8"?>
<!-- Generator: Adobe Illustrator 22.0.0, SVG Export Plug-In . SVG Version: 6.00 Build 0)  -->
<svg version="1.1" id="图层_1" xmlns="http://www.w3.org/2000/svg" xmlns:xlink="http://www.w3.org/1999/xlink" x="0px" y="0px"
	 viewBox="0 0 200 200" style="enable-background:new 0 0 200 200;" xml:space="preserve">
<title>市院简介</title>
<desc>Created with Sketch.</desc>
<g id="Artboard" transform="translate(-68.000000, -103.000000)">
	<g id="市院简介" transform="translate(68.000000, 103.000000)">
		<path id="Combined-Shape" d="M31.5,7h139c2.2,0,4,1.8,4,4v178c0,2.2-1.8,4-4,4h-139c-2.2,0-4-1.8-4-4V11C27.5,8.8,29.3,7,31.5,7z
			 M65.8,63.4c3.5,0,6.4-2.9,6.4-6.4s-2.9-6.4-6.4-6.4c-3.5,0-6.4,2.9-6.4,6.4S62.3,63.4,65.8,63.4z M65.8,106.4
			c3.5,0,6.4-2.9,6.4-6.4s-2.9-6.4-6.4-6.4c-3.5,0-6.4,2.9-6.4,6.4S62.3,106.4,65.8,106.4z M65.8,150c3.5,0,6.4-2.9,6.4-6.4
			s-2.9-6.4-6.4-6.4c-3.5,0-6.4,2.9-6.4,6.4S62.3,150,65.8,150z M85,50.6v12.8h57.5V50.6H85z M85,93.6v12.8h57.5V93.6H85z M85,136.6
			v12.8h57.5v-12.8H85z"/>
	</g>
</g>
</svg>
