<?xml version="1.0" encoding="utf-8"?>
<!-- Generator: Adobe Illustrator 22.0.1, SVG Export Plug-In . SVG Version: 6.00 Build 0)  -->
<svg version="1.1" id="图层_1" xmlns="http://www.w3.org/2000/svg" xmlns:xlink="http://www.w3.org/1999/xlink" x="0px" y="0px"
	 viewBox="0 0 200 200" style="enable-background:new 0 0 200 200;" xml:space="preserve">
<title>公告管理</title>
<desc>Created with Sketch.</desc>
<title>议题收集</title>
<desc>Created with Sketch.</desc>
<title>办公</title>
<desc>Created with Sketch.</desc>
<path d="M169.4,28.7h-35.5c0-15.6-12.8-28.4-28.4-28.4S77.1,13.1,77.1,28.7H41.5c-3.9,0-7.1,3.2-7.1,7.1v156.3
	c0,3.9,3.2,7.1,7.1,7.1h127.9c3.9,0,7.1-3.2,7.1-7.1V35.9C176.5,31.9,173.3,28.7,169.4,28.7z M105.5,21.6c3.9,0,7.1,3.2,7.1,7.1
	s-3.2,7.1-7.1,7.1c-3.9,0-7.1-3.2-7.1-7.1S101.6,21.6,105.5,21.6z M103.9,140.5l-10.1,10.1l-10.1-10.1l-19.9-20.1l10.1-10.1
	l20.1,20.1l45.3-45.3l10.1,10.1L103.9,140.5z"/>
</svg>
