<?xml version="1.0" encoding="utf-8"?>
<!-- Generator: Adobe Illustrator 22.0.1, SVG Export Plug-In . SVG Version: 6.00 Build 0)  -->
<svg version="1.1" id="图层_1" xmlns="http://www.w3.org/2000/svg" xmlns:xlink="http://www.w3.org/1999/xlink" x="0px" y="0px"
	 viewBox="0 0 200 200" style="enable-background:new 0 0 200 200;" xml:space="preserve">
<title>公告管理</title>
<desc>Created with Sketch.</desc>
<title>议题收集</title>
<desc>Created with Sketch.</desc>
<title>办公</title>
<desc>Created with Sketch.</desc>
<title>导航检察课堂-党建制度</title>
<desc>Created with Sketch.</desc>
<g id="检察课堂-判断题_1_" transform="translate(-103.000000, -941.000000)">
	<g id="二级目录_x2F_流程配置-copy-3" transform="translate(70.000000, 929.000000)">
		<g id="导航检察课堂-单选题" transform="translate(33.000000, 12.000000)">
			<path id="Shape" d="M186.3,199h-27.3c-2.2,0-4.2-1.4-4.9-3.5l-19.9-52.9H65.6L47,195.4c-0.8,2.1-2.8,3.6-5,3.6H16.5
				c-1.7,0-3.4-0.9-4.4-2.4c-1-1.5-1.2-3.4-0.6-5l69.7-186c0.8-2.1,2.8-3.5,5-3.5H112c2.1,0,4.1,1.3,4.9,3.4l74.3,186
				c0.7,1.7,0.5,3.6-0.5,5.1C189.7,198.1,188.1,199,186.3,199z M76.5,111.8h46.2l-16.2-44.2c-2.7-7.4-5.1-14.2-7.2-20.4
				c-1.6,5.8-3.4,11.6-5.5,17.3L76.5,111.8z"/>
		</g>
	</g>
</g>
</svg>
