<?xml version="1.0" encoding="utf-8"?>
<!-- Generator: Adobe Illustrator 22.0.1, SVG Export Plug-In . SVG Version: 6.00 Build 0)  -->
<svg version="1.1" id="图层_1" xmlns="http://www.w3.org/2000/svg" xmlns:xlink="http://www.w3.org/1999/xlink" x="0px" y="0px"
	 viewBox="0 0 200 200" style="enable-background:new 0 0 200 200;" xml:space="preserve">
<title>公告管理</title>
<desc>Created with Sketch.</desc>
<title>议题收集</title>
<desc>Created with Sketch.</desc>
<title>办公</title>
<desc>Created with Sketch.</desc>
<g id="首页-修改1.2-copy-4" transform="translate(-45.000000, -429.000000)">
	<g id="语音识别" transform="translate(45.000000, 429.000000)">
		<g id="Group" transform="translate(4.000000, 5.000000)">
			<path id="Shape_2_" d="M188.6,62.9c-2.5,0-4.2-2-4.2-5.1V42.6c0-2.5,1.7-5.1,4.2-5.1c2.1,0,4.2,2,4.2,5.1v15.7
				C192.8,60.8,191.2,62.9,188.6,62.9z M171.7,75.5c-2.5,0-4.2-2-4.2-5.1V30c0-2.5,1.7-5.1,4.2-5.1c2.1,0,4.2,2,4.2,5.1v40.5
				C175.9,73.5,174.2,75.5,171.7,75.5z M154.5,85.6c-2.5,0-4.2-2-4.2-5.1V19.8c0-2.5,1.7-5.1,4.2-5.1c2.1,0,4.2,2,4.2,5.1v60.7
				C158.8,83.6,157.1,85.6,154.5,85.6z M137.4,75.5c-2.5,0-4.2-2-4.2-5.1V30c0-2.5,1.7-5.1,4.2-5.1c2.1,0,4.5,2,4.5,5.1v40.5
				C141.9,73.5,139.9,75.5,137.4,75.5z M120.3,62.9c-2.5,0-4.2-2-4.2-5.1V42.6c0-2.5,1.7-5.1,4.2-5.1c2.1,0,4.5,2,4.5,5.1v15.7
				C124.8,60.8,122.8,62.9,120.3,62.9z"/>
			<path id="Shape_1_" d="M60,117.4c18.7,0,33.8-15.4,33.8-34.3V37.3C93.8,18.3,78.7,3,60,3C41.3,3,26.2,18.3,26.2,37.3V83
				C26.2,102,41.3,117.4,60,117.4z M122,86C122,86,122,85.9,122,86C122,85.9,122,85.9,122,86c0-4.8-3.8-8.6-8.5-8.6
				c-4.7,0-8.5,3.8-8.5,8.6c0,25.3-20.2,45.7-45.1,45.8c-24.9,0-45.1-20.5-45.1-45.8c0-4.7-3.8-8.6-8.5-8.6c-4.7,0-8.5,3.8-8.5,8.6
				c0,0,0,0,0,0c0,0,0,0,0,0c0,31.8,23.3,58,53.5,62.2v20.7H23.4c-4.7,0-8.5,3.8-8.5,8.6s3.8,8.6,8.5,8.6h73.3
				c4.7,0,8.5-3.8,8.5-8.6c0-4.7-3.8-8.6-8.5-8.6H68.4v-20.7C98.7,144,122,117.8,122,86z"/>
		</g>
	</g>
</g>
</svg>
