<?xml version="1.0" encoding="utf-8"?>
<!-- Generator: Adobe Illustrator 22.0.0, SVG Export Plug-In . SVG Version: 6.00 Build 0)  -->
<svg version="1.1" id="图层_1" xmlns="http://www.w3.org/2000/svg" xmlns:xlink="http://www.w3.org/1999/xlink" x="0px" y="0px"
	 viewBox="0 0 200 200" style="enable-background:new 0 0 200 200;" xml:space="preserve">
<title>统计分析</title>
<desc>Created with Sketch.</desc>
<g id="Artboard" transform="translate(-92.000000, -105.000000)">
	<g id="统计分析" transform="translate(92.000000, 105.000000)">
		<path id="Combined-Shape" d="M110.4,77.8c-0.7-0.5-1.5-0.8-2.4-0.8c-1.1,0-2.2,0.5-2.9,1.2l-15.3-9.9c0.1-0.4,0.2-0.8,0.2-1.3
			c0-2.2-1.8-4-4-4s-4,1.8-4,4c0,0.7,0.2,1.4,0.6,2L66.3,84.7C65.7,84.3,64.9,84,64,84c-2.2,0-4,1.8-4,4s1.8,4,4,4s4-1.8,4-4
			c0-0.6-0.1-1.2-0.4-1.7L84,70.4c0.6,0.4,1.3,0.6,2,0.6c1,0,2-0.4,2.7-1l15.4,10c-0.1,0.3-0.1,0.7-0.1,1c0,2.2,1.8,4,4,4s4-1.8,4-4
			c0-0.6-0.1-1.2-0.4-1.7l20.2-17c0.6,0.4,1.4,0.6,2.2,0.6c2.2,0,4-1.8,4-4s-1.8-4-4-4s-4,1.8-4,4c0,0.7,0.2,1.3,0.5,1.9L110.4,77.8
			z M47,13h102c5.5,0,10,4.5,10,10v157c0,5.5-4.5,10-10,10H47c-5.5,0-10-4.5-10-10V23C37,17.5,41.5,13,47,13z M53,146v30h10v-30H53z
			 M73,136v40h10v-40H73z M93,126v50h10v-50H93z M113,116v60h10v-60H113z M133,106v70h10v-70H133z M80,26c-2.2,0-4,1.8-4,4v1
			c0,2.2,1.8,4,4,4h32c2.2,0,4-1.8,4-4v-1c0-2.2-1.8-4-4-4H80z"/>
	</g>
</g>
</svg>
