<?xml version="1.0" encoding="utf-8"?>
<!-- Generator: Adobe Illustrator 22.0.1, SVG Export Plug-In . SVG Version: 6.00 Build 0)  -->
<svg version="1.1" id="图层_1" xmlns="http://www.w3.org/2000/svg" xmlns:xlink="http://www.w3.org/1999/xlink" x="0px" y="0px"
	 viewBox="0 0 200 200" style="enable-background:new 0 0 200 200;" xml:space="preserve">
<title>公告管理</title>
<desc>Created with Sketch.</desc>
<title>议题收集</title>
<desc>Created with Sketch.</desc>
<title>办公</title>
<desc>Created with Sketch.</desc>
<path d="M107.2,3.2c-2.1-2.6-5.9-2.9-8.4-0.8c-0.3,0.2-0.6,0.5-0.8,0.8L25.6,85.9c-2.5,2.9-1.5,5.3,2.4,5.3h32.6c3.9,0,7,3.2,7,7
	v54.2c0,3.9,3.2,7,7,7h55.9c3.9,0,7-3.2,7-7V98.2c0-3.9,3.2-7,7-7h32.6c3.9,0,5-2.4,2.4-5.3L107.2,3.2 M21,182.6c0-3.9,3.2-7,7-7
	h149.2c3.9,0,7,3.2,7,7v9.2c0,3.9-3.2,7-7,7H28c-3.9,0-7-3.2-7-7C21,191.8,21,182.6,21,182.6z"/>
</svg>
