<?xml version="1.0" encoding="utf-8"?>
<!-- Generator: Adobe Illustrator 22.0.1, SVG Export Plug-In . SVG Version: 6.00 Build 0)  -->
<svg version="1.1" id="图层_1" xmlns="http://www.w3.org/2000/svg" xmlns:xlink="http://www.w3.org/1999/xlink" x="0px" y="0px"
	 viewBox="0 0 200 200" style="enable-background:new 0 0 200 200;" xml:space="preserve">
<title>公告管理</title>
<desc>Created with Sketch.</desc>
<title>议题收集</title>
<desc>Created with Sketch.</desc>
<title>办公</title>
<desc>Created with Sketch.</desc>
<title>导航检察课堂-党建制度</title>
<desc>Created with Sketch.</desc>
<g>
	<path d="M171.5,149.4h-38c-1.4,0-2.8,0.6-3.8,1.6c-1,1-1.6,2.4-1.6,3.9v38.3c0,1.5,0.6,2.8,1.6,3.9c1,1,2.4,1.6,3.8,1.6l43.4-43.7
		C176.9,151.9,174.5,149.4,171.5,149.4z"/>
	<path d="M166.1,1.8H35.9c-6,0-10.8,4.9-10.8,10.9v175c0,6,4.9,10.9,10.8,10.9h81.4v-49.2c0-6,4.9-10.9,10.8-10.9h48.8V12.7
		C176.9,6.7,172.1,1.8,166.1,1.8z M101,94.8H57.6c-3,0-5.4-2.4-5.4-5.5s2.4-5.5,5.4-5.5H101c3,0,5.4,2.4,5.4,5.5S104,94.8,101,94.8z
		 M101,72.9H57.6c-3,0-5.4-2.4-5.4-5.5c0-3,2.4-5.5,5.4-5.5H101c3,0,5.4,2.4,5.4,5.5C106.4,70.4,104,72.9,101,72.9z M131.9,49.4
		c-1,1-2.4,1.6-3.8,1.6H57.6c-3,0-5.4-2.4-5.4-5.5c0-3,2.4-5.5,5.4-5.5h70.5c1.4,0,2.8,0.6,3.8,1.6s1.6,2.4,1.6,3.9
		C133.5,47,133,48.4,131.9,49.4z"/>
</g>
</svg>
