<?xml version="1.0" encoding="utf-8"?>
<!-- Generator: Adobe Illustrator 22.0.1, SVG Export Plug-In . SVG Version: 6.00 Build 0)  -->
<svg version="1.1" id="图层_1" xmlns="http://www.w3.org/2000/svg" xmlns:xlink="http://www.w3.org/1999/xlink" x="0px" y="0px"
	 viewBox="0 0 200 200" style="enable-background:new 0 0 200 200;" xml:space="preserve">
<title>公告管理</title>
<desc>Created with Sketch.</desc>
<title>议题收集</title>
<desc>Created with Sketch.</desc>
<title>办公</title>
<desc>Created with Sketch.</desc>
<path d="M180.1,9.9H33.9v24.3H16c-3.3,0-6.6,2.4-6.6,5.8V52c0,3.3,3.2,6.5,6.6,6.5h17.8v12.2H16c-3.3,0-6.6,2.4-6.6,5.8v12.2
	c0,3.3,3.2,6.5,6.6,6.5h17.8v12H16c-3.3,0-6.6,2.4-6.6,5.8V125c0,3.3,3.2,6.5,6.6,6.5h17.8v12.2H16c-3.3,0-6.6,2.4-6.6,5.8v12.2
	c0,3.3,3.2,6.5,6.6,6.5h17.8v24.3h146.3c6.7,0,11.7-5.9,11.7-12.6v-158C191.8,14.9,186.8,9.9,180.1,9.9z M70.2,179.9H45.9v-12.2h6.6
	c3.3,0,5.6-3.1,5.6-6.5v-12.2c0-3.3-2.3-5.8-5.6-5.8h-6.6v-12.2h6.6c3.3,0,5.6-3.1,5.6-6.5v-11.9c0-3.3-2.3-5.8-5.6-5.8h-6.6V94.8
	h6.6c3.3,0,5.6-3.1,5.6-6.5V76.3c0-3.3-2.3-5.8-5.6-5.8h-6.6V58.4h6.6c3.3,0,5.6-3.1,5.6-6.5V39.8c0-3.3-2.3-5.8-5.6-5.8h-6.6V21.9
	h24.3L70.2,179.9z"/>
</svg>
