<?xml version="1.0" encoding="utf-8"?>
<!-- Generator: Adobe Illustrator 22.0.0, SVG Export Plug-In . SVG Version: 6.00 Build 0)  -->
<svg version="1.1" id="图层_1" xmlns="http://www.w3.org/2000/svg" xmlns:xlink="http://www.w3.org/1999/xlink" x="0px" y="0px"
	 viewBox="0 0 200 200" style="enable-background:new 0 0 200 200;" xml:space="preserve">
<title>Combined Shape</title>
<desc>Created with Sketch.</desc>
<g id="Artboard" transform="translate(-109.000000, -139.000000)">
	<path id="Combined-Shape" d="M262.1,200.8l-56.5,67.4v38.4c0,5-4.1,9.1-9.1,9.1s-9.1-4.1-9.1-9.1v-41.8c0-2.8,1.2-5.3,3.2-6.9
		c0.2-0.3,0.4-0.5,0.6-0.8l47.8-56.9l-76.7,40.8l17.6,9c4.5,2.3,6.2,7.7,4,12.2c-2.3,4.5-7.7,6.2-12.2,4l-32.2-16.4
		c-1.3-0.7-2.4-1.6-3.2-2.7c-0.5-0.5-0.9-1.1-1.2-1.7c-2.3-4.4-0.7-9.9,3.7-12.3l130.6-69.5c2.8-1.5,6-1.4,8.5,0
		c4.2,1.3,6.9,5.5,6.3,9.9L266.5,300c-0.2,1.7-0.9,3.2-1.9,4.5c-2.5,3.9-7.6,5.4-11.8,3.3l-39.8-20.3c-4.5-2.3-6.2-7.7-4-12.2
		c2.3-4.5,7.7-6.2,12.2-4l29,14.8L262.1,200.8z"/>
</g>
</svg>
