<?xml version="1.0" encoding="utf-8"?>
<!-- Generator: Adobe Illustrator 22.0.1, SVG Export Plug-In . SVG Version: 6.00 Build 0)  -->
<svg version="1.1" id="图层_1" xmlns="http://www.w3.org/2000/svg" xmlns:xlink="http://www.w3.org/1999/xlink" x="0px" y="0px"
	 viewBox="0 0 200 200" style="enable-background:new 0 0 200 200;" xml:space="preserve">
<path d="M183.4,119.2c-10.5-18.2-4.2-41.5,14.1-52l-19.7-34c-5.6,3.3-12.1,5.2-19.1,5.2c-21,0-38-17.1-38-38.3H81.4
	c0.1,6.5-1.6,13.1-5.1,19.2C65.8,37.4,42.5,43.5,24.2,33l-19.7,34c5.7,3.2,10.6,7.9,14,14c10.5,18.1,4.2,41.4-14,52l19.7,34
	c5.6-3.3,12.1-5.1,19-5.1c20.9,0,37.9,17,38,38.1h39.3c0-6.5,1.6-13,5.1-19c10.5-18.1,33.7-24.3,52-13.9l19.7-34
	C191.7,129.9,186.8,125.2,183.4,119.2L183.4,119.2z M101,140.5c-22.4,0-40.5-18.1-40.5-40.5c0-22.4,18.1-40.5,40.5-40.5
	s40.5,18.1,40.5,40.5C141.5,122.4,123.4,140.5,101,140.5z"/>
</svg>
