<?xml version="1.0" encoding="utf-8"?>
<!-- Generator: Adobe Illustrator 22.0.0, SVG Export Plug-In . SVG Version: 6.00 Build 0)  -->
<svg version="1.1" id="图层_1" xmlns="http://www.w3.org/2000/svg" xmlns:xlink="http://www.w3.org/1999/xlink" x="0px" y="0px"
	 viewBox="0 0 200 200" style="enable-background:new 0 0 200 200;" xml:space="preserve">
<title>专网列表</title>
<desc>Created with Sketch.</desc>
<g id="Artboard" transform="translate(-84.000000, -104.000000)">
	<g id="专网列表" transform="translate(84.000000, 104.000000)">
		<path id="Combined-Shape" d="M51,7h94c11,0,20,9,20,20v142c0,11-9,20-20,20H51c-11,0-20-9-20-20V27C31,16,40,7,51,7z M78,22v10h40
			V22H78z M52.5,55c-3,0-5.5,2.5-5.5,5.5s2.5,5.5,5.5,5.5h91c3,0,5.5-2.5,5.5-5.5s-2.5-5.5-5.5-5.5H52.5z M52.5,86
			c-3,0-5.5,2.5-5.5,5.5s2.5,5.5,5.5,5.5h91c3,0,5.5-2.5,5.5-5.5s-2.5-5.5-5.5-5.5H52.5z M52.5,117c-3,0-5.5,2.5-5.5,5.5
			s2.5,5.5,5.5,5.5h91c3,0,5.5-2.5,5.5-5.5s-2.5-5.5-5.5-5.5H52.5z M52.5,148c-3,0-5.5,2.5-5.5,5.5s2.5,5.5,5.5,5.5h91
			c3,0,5.5-2.5,5.5-5.5s-2.5-5.5-5.5-5.5H52.5z"/>
	</g>
</g>
</svg>
