<?xml version="1.0" encoding="utf-8"?>
<!-- Generator: Adobe Illustrator 22.0.0, SVG Export Plug-In . SVG Version: 6.00 Build 0)  -->
<svg version="1.1" id="图层_1" xmlns="http://www.w3.org/2000/svg" xmlns:xlink="http://www.w3.org/1999/xlink" x="0px" y="0px"
	 viewBox="0 0 200 200" style="enable-background:new 0 0 200 200;" xml:space="preserve">
<title>专网审核</title>
<desc>Created with Sketch.</desc>
<g id="Artboard" transform="translate(-85.000000, -103.000000)">
	<g id="专网审核" transform="translate(85.000000, 103.000000)">
		<path id="Rectangle-8" d="M84,14h23c6.1,0,11,4.9,11,11v8H73v-8C73,18.9,77.9,14,84,14z"/>
		<circle id="Oval-4" cx="95.5" cy="15.5" r="9.5"/>
		<path id="Combined-Shape" d="M66.6,163.9l-6.9-5.2c-0.7-0.5-1.7-0.4-2.3,0.3c-0.5,0.7-0.4,1.7,0.3,2.3l7.8,5.9
			c0.3,0.2,0.7,0.3,1,0.3c0.6,0.2,1.2,0,1.6-0.5l10.6-12.2c0.6-0.7,0.5-1.7-0.2-2.3c-0.7-0.6-1.7-0.5-2.3,0.2L66.6,163.9z
			 M66.6,133.8l-6.9-5.2c-0.7-0.5-1.7-0.4-2.3,0.3s-0.4,1.7,0.3,2.3l7.8,5.9c0.3,0.2,0.7,0.3,1,0.3c0.6,0.2,1.2,0,1.6-0.5l10.6-12.2
			c0.6-0.7,0.5-1.7-0.2-2.3c-0.7-0.6-1.7-0.5-2.3,0.2L66.6,133.8z M66.6,101.5l-6.9-5.2c-0.7-0.5-1.7-0.4-2.3,0.3
			c-0.5,0.7-0.4,1.7,0.3,2.3l7.8,5.9c0.3,0.2,0.7,0.3,1,0.3c0.6,0.2,1.2,0,1.6-0.5l10.6-12.2c0.6-0.7,0.5-1.7-0.2-2.3
			c-0.7-0.6-1.7-0.5-2.3,0.2L66.6,101.5z M66.6,68.1l-6.9-5.2c-0.7-0.5-1.7-0.4-2.3,0.3s-0.4,1.7,0.3,2.3l7.8,5.9
			c0.3,0.2,0.7,0.3,1,0.3c0.6,0.2,1.2,0,1.6-0.5L78.9,59c0.6-0.7,0.5-1.7-0.2-2.3c-0.7-0.6-1.7-0.5-2.3,0.2L66.6,68.1z M68.5,21
			v15.1h54V21H141c8.3,0,15,6.7,15,15v147c0,3.9-3.1,7-7,7H42c-3.9,0-7-3.1-7-7V36c0-8.3,6.7-15,15-15H68.5z M87.4,63
			c-1.5,0-2.7,1.2-2.7,2.7s1.2,2.7,2.7,2.7h45.4c1.5,0,2.7-1.2,2.7-2.7s-1.2-2.7-2.7-2.7H87.4z M87.4,97.4c-1.5,0-2.7,1.2-2.7,2.7
			s1.2,2.7,2.7,2.7h45.4c1.5,0,2.7-1.2,2.7-2.7s-1.2-2.7-2.7-2.7H87.4z M87.4,128.6c-1.5,0-2.7,1.2-2.7,2.7s1.2,2.7,2.7,2.7h45.4
			c1.5,0,2.7-1.2,2.7-2.7s-1.2-2.7-2.7-2.7H87.4z M87.4,158.8c-1.5,0-2.7,1.2-2.7,2.7c0,1.5,1.2,2.7,2.7,2.7h45.4
			c1.5,0,2.7-1.2,2.7-2.7c0-1.5-1.2-2.7-2.7-2.7H87.4z"/>
	</g>
</g>
</svg>
