<?xml version="1.0" encoding="utf-8"?>
<!-- Generator: Adobe Illustrator 22.0.1, SVG Export Plug-In . SVG Version: 6.00 Build 0)  -->
<svg version="1.1" id="图层_1" xmlns="http://www.w3.org/2000/svg" xmlns:xlink="http://www.w3.org/1999/xlink" x="0px" y="0px"
	 viewBox="0 0 200 200" style="enable-background:new 0 0 200 200;" xml:space="preserve">
<title>公告管理</title>
<desc>Created with Sketch.</desc>
<title>议题收集</title>
<desc>Created with Sketch.</desc>
<title>办公</title>
<desc>Created with Sketch.</desc>
<title>导航检察课堂-党建制度</title>
<desc>Created with Sketch.</desc>
<g>
	<ellipse cx="76.2" cy="132.6" rx="5.6" ry="6"/>
	<path d="M164.9,4.3H44.2c-13.3,0-24.1,12.2-24.1,27.4v136.8c0,15.1,10.8,27.4,24.1,27.4h120.7c13.3,0,24.1-12.2,24.1-27.4V31.6
		C189,16.5,178.2,4.3,164.9,4.3z M76.2,150.7c-9.4,0-16.9-8.1-16.9-18.1c0-10,7.6-18.1,16.9-18.1c9.4,0,16.9,8.1,16.9,18.1
		C93.1,142.6,85.5,150.7,76.2,150.7z M96.9,71.5L75.2,94.5c-0.7,0.7-1.5,1.2-2.4,1.5c-2,0.9-4.4,0.4-6-1.2L55.2,82.4
		c-1.9-2.3-1.8-5.8,0.2-8c2-2.2,5.3-2.3,7.5-0.2l7,7.5l18.2-19.4c2.4-2.3,6.1-2.2,8.4,0.3C98.9,65,99,68.9,96.9,71.5z M149.6,138.7
		h-33.9c-3.1,0-5.6-2.7-5.6-6c0-3.3,2.5-6,5.6-6h33.9c3.1,0,5.6,2.7,5.6,6C155.2,136,152.7,138.7,149.6,138.7z M149.6,90.5h-33.9
		c-3.1,0-5.6-2.7-5.6-6s2.5-6,5.6-6h33.9c3.1,0,5.6,2.7,5.6,6S152.7,90.5,149.6,90.5z"/>
</g>
</svg>
