<?xml version="1.0" encoding="utf-8"?>
<!-- Generator: Adobe Illustrator 22.0.1, SVG Export Plug-In . SVG Version: 6.00 Build 0)  -->
<svg version="1.1" id="图层_1" xmlns="http://www.w3.org/2000/svg" xmlns:xlink="http://www.w3.org/1999/xlink" x="0px" y="0px"
	 viewBox="0 0 200 200" style="enable-background:new 0 0 200 200;" xml:space="preserve">
<title>公告管理</title>
<desc>Created with Sketch.</desc>
<title>议题收集</title>
<desc>Created with Sketch.</desc>
<title>办公</title>
<desc>Created with Sketch.</desc>
<path d="M183.4,167.4c-3.2-1.5-4-5.7-1.6-8.2c0.7-0.8,1.6-1.4,2.6-1.8c2.2-1,3.1-2.5,2.9-4.5c-0.3-2.8-1.1-5.5-2.8-7.9
	c-1.5-2-3.5-2.7-5.8-1.7c-1.2,0.5-2.4,0.7-3.6,0.7c-2.4-0.1-4.5-2.1-4.7-4.4c-0.1-1,0.1-2,0.4-3c0.3-0.9,0.6-1.8,0.4-2.8
	c-0.3-1.6-1.4-2.6-2.6-3.6c-2-1.6-4.4-2.3-6.9-2.7c-1.6-0.2-2.9,0.2-3.9,1.5c-0.5,0.6-1,1.4-1.3,2.1c-1.5,3-5.8,4.2-8.4,1.7
	c-0.8-0.8-1.4-1.7-1.9-2.8c-0.9-1.9-2.4-2.8-4.4-2.6c-2.9,0.4-5.7,1.1-8,3c-1.5,1.2-2.3,2.8-1.8,4.8c0.2,0.8,0.2,1.7,0.4,2.6v0
	c0,0,0,0,0,0c0,0.5-0.1,0.9-0.1,1.4c-0.2,3-2.4,4.3-4.8,4.4c-1.4,0.1-2.6-0.3-3.8-0.7c-1.9-0.5-3.3,0.2-4.5,1.6
	c-1.6,1.8-2.3,4-2.9,6.3c-0.6,2.6,0.3,5.8,3.3,6.8c1,0.4,2,1.3,2.7,2.2c1.1,1.3,1.2,2.9,0.4,4.4c-0.8,1.6-2.1,2.7-3.8,3.4
	c-2.3,0.9-3,2.8-2.8,5c0.2,2.8,1.2,5.3,2.9,7.6c1.3,1.7,3,2.3,5.1,1.8c1.4-0.3,2.9-0.6,4.4-0.4c1.9,0.3,3.4,1.9,3.4,3.8
	c0.1,1.1-0.3,2.2-0.7,3.2c-0.3,0.8-0.5,1.6-0.4,2.6c0.2,1.4,1,2.3,2,3.2c2.2,1.8,4.9,2.8,7.7,3.3c2.3,0.4,4.8-0.3,5.9-3
	c0.4-1.1,1.2-2.1,2.2-2.8c1.5-1.1,3.2-1.4,5-0.6c1.5,0.7,2.5,1.9,3.1,3.4c1,2.3,2.8,3.4,4.9,3.1c2.6-0.4,5-1.2,7.2-2.7
	c1.9-1.3,3-3.8,1.9-6.2c-0.5-1.1-0.6-2.2-0.5-3.3c0.1-1.8,1.7-3.5,3.5-3.9c1.6-0.3,3.2,0,4.8,0.4c2.3,0.6,4.1-0.2,5.6-1.9
	c1.7-1.9,2.4-4.2,2.8-6.6c0.3-1.5,0.1-2.9-0.9-4.2C185.5,168.5,184.5,167.9,183.4,167.4z M151.8,178.2c-8.6,0.1-15.7-6.9-15.7-15.5
	c0-8.5,6.9-15.4,15.6-15.5c8.6-0.1,15.7,6.8,15.8,15.5C167.5,171.1,160.5,178.1,151.8,178.2z"/>
<path d="M159.1,3.1H35.4c-4.8,0-9.5,3.8-9.5,9.5v161.7c0,5.7,3.8,9.5,9.5,9.5h71.8c-1.7-5.1-2.6-10.6-2.6-16.2c0-28.7,23.3-52,52-52
	c4.1,0,8.1,0.5,11.9,1.4V12.6C168.6,6.9,164.8,3.1,159.1,3.1z M115.5,99H54.6V87.3h60.9V99z M139.9,75.1H54.6v-12h85.4V75.1z
	 M139.9,51.3H54.6V39.5h85.4V51.3z"/>
</svg>
