<?xml version="1.0" encoding="utf-8"?>
<!-- Generator: Adobe Illustrator 22.0.1, SVG Export Plug-In . SVG Version: 6.00 Build 0)  -->
<svg version="1.1" id="图层_1" xmlns="http://www.w3.org/2000/svg" xmlns:xlink="http://www.w3.org/1999/xlink" x="0px" y="0px"
	 viewBox="0 0 200 200" style="enable-background:new 0 0 200 200;" xml:space="preserve">
<title>公告管理</title>
<desc>Created with Sketch.</desc>
<title>议题收集</title>
<desc>Created with Sketch.</desc>
<title>办公</title>
<desc>Created with Sketch.</desc>
<g id="检察课堂-判断题" transform="translate(-99.000000, -751.000000)">
	<g id="二级目录_x2F_模块配置" transform="translate(70.000000, 739.000000)">
		<g id="导航检察课堂-理论学习图标" transform="translate(29.000000, 12.000000)">
			<path id="Shape_2_" d="M194.4,65.6c-29.9-12.7-59.9-24.9-89.8-37.6c-3.1-1.2-6.2-1.2-9.4,0C65.9,40.7,36,52.9,6.7,65
				c-3.1,1.2-6.2,2.4-6.2,6.7c0,4.2,3.1,5.5,6.2,6.7C34.1,89.9,61.6,100.8,89,113c7.5,3.6,14.3,4.2,21.8,0c3.7-2.4,8.1-3.6,12.5-5.5
				c17.5-7.3,34.3-14.6,52.4-21.8v61.3c0,3.6,1.2,4.9,5,4.9c3.7,0,5-0.6,5-4.9c0-18.2,0.6-37-0.6-55.2c0-7.3,1.2-12.1,9.4-14
				c3.1-0.6,5.6-2.4,5.6-6.1C200,68,197.5,66.8,194.4,65.6z"/>
			<path id="Shape_1_" d="M158.3,113.8c0-4-1.2-4-4.3-2.9c-16.6,6.9-33.2,13.3-49.2,20.2c-6.2,2.3-11.1,2.3-17.2,0
				c-16.6-6.9-33.2-13.3-49.9-20.2c-3.1-1.2-3.7-0.6-3.7,2.3v23.1c-1.8,15.6,6.8,26,20.9,31.7c28.3,12.1,56.6,11.5,84.3-1.2
				c12.9-6.3,20.3-15.6,19.1-30.6C157.7,128.8,158.3,121.3,158.3,113.8z"/>
		</g>
	</g>
</g>
</svg>
