<?xml version="1.0" encoding="utf-8"?>
<!-- Generator: Adobe Illustrator 22.0.1, SVG Export Plug-In . SVG Version: 6.00 Build 0)  -->
<svg version="1.1" id="图层_1" xmlns="http://www.w3.org/2000/svg" xmlns:xlink="http://www.w3.org/1999/xlink" x="0px" y="0px"
	 viewBox="0 0 200 200" style="enable-background:new 0 0 200 200;" xml:space="preserve">
<title>公告管理</title>
<desc>Created with Sketch.</desc>
<title>议题收集</title>
<desc>Created with Sketch.</desc>
<title>办公</title>
<desc>Created with Sketch.</desc>
<title>导航检察课堂-党建制度</title>
<desc>Created with Sketch.</desc>
<g id="检察课堂-判断题" transform="translate(-101.000000, -904.000000)">
	<g id="二级目录_x2F_流程配置-copy-2" transform="translate(70.000000, 891.000000)">
		<g id="导航检察课堂-理论培训" transform="translate(31.000000, 13.000000)">
			<path id="Shape_2_" d="M198,85.1c0.1-3.6-1.3-7.1-4-9.9c-3.5-3-8.6-4.6-13.6-4.1H20.4c-5.2-0.4-10.4,1.1-14.1,4.1
				C3.5,78,1.9,81.5,2,85.1v25.8c-0.1,3.6,1.7,7.1,4.8,9.7c3.6,2.7,8.3,4.1,13.2,3.9h160.4c4.8,0.3,9.6-1.2,13.1-3.9
				c3-2.6,4.6-6.1,4.5-9.7V85.1z M111,102.4H89.1c-1.4,0.1-2.8-0.3-3.9-1.1c-1.1-0.9-1.6-2.1-1.6-3.4c0-1.2,0.5-2.3,1.6-3.1
				c1.1-0.9,2.5-1.3,4-1.3h21.8c1.5-0.1,2.9,0.3,3.9,1.1c1,0.9,1.5,2.1,1.4,3.3C116.1,100.9,114.3,102.3,111,102.4z"/>
			<path id="Shape_1_" d="M193.5,136.3c-3.6-2.9-8.5-4.4-13.5-4.1H20.6c-5.2-0.4-10.3,1.1-14.2,4.1c-3,2.7-4.6,6.3-4.4,9.9v24.1
				c-0.3,4.2,1.7,8.3,5.4,11.2c3.4,2.6,7.9,4,12.5,4.1h159.2c5,0.3,9.9-1.2,13.5-4c3.4-2.5,5.4-6.1,5.3-9.9v-25.8
				C198.1,142.4,196.5,138.9,193.5,136.3z M114.8,162c-1,0.9-2.4,1.3-3.8,1.3H89.1c-1.5,0.1-2.9-0.4-4-1.3c-1-0.8-1.6-1.9-1.6-3.1
				c0-1.2,0.6-2.3,1.6-3.1c1.1-0.9,2.5-1.3,4-1.3h21.9c1.4-0.1,2.8,0.4,3.8,1.3c0.9,0.8,1.5,1.9,1.5,3.1
				C116.3,160.1,115.8,161.2,114.8,162z"/>
			<path id="Path" d="M157.7,22c1.8,0,3.5,0.8,4.5,2.1l19.7,25.6c1.8,2.3,1.2,5.5-1.3,7.1c-0.9,0.6-2.1,1-3.2,1H22.5
				c-3,0-5.5-2.3-5.5-5.1c0-1.1,0.4-2.1,1-3l19.7-25.6c1-1.3,2.7-2.1,4.5-2.1H157.7z"/>
		</g>
	</g>
</g>
</svg>
