<?xml version="1.0" encoding="utf-8"?>
<!-- Generator: Adobe Illustrator 22.0.1, SVG Export Plug-In . SVG Version: 6.00 Build 0)  -->
<svg version="1.1" id="图层_1" xmlns="http://www.w3.org/2000/svg" xmlns:xlink="http://www.w3.org/1999/xlink" x="0px" y="0px"
	 viewBox="0 0 200 200" style="enable-background:new 0 0 200 200;" xml:space="preserve">
<title>公告管理</title>
<desc>Created with Sketch.</desc>
<title>议题收集</title>
<desc>Created with Sketch.</desc>
<title>办公</title>
<desc>Created with Sketch.</desc>
<title>导航检察课堂-党建制度</title>
<desc>Created with Sketch.</desc>
<g id="通知通告" transform="translate(-164.000000, -107.000000)">
	<g id="审核记录" transform="translate(120.000000, 74.000000)">
		<g id="审核" transform="translate(44.000000, 33.000000)">
			<path id="Shape" d="M190.5,183.8l-26-26c6.8-9.2,10.8-20.5,10.8-32.8c0-30.5-24.9-55.4-55.4-55.4S64.5,94.5,64.5,125
				c0,30.6,24.9,55.4,55.4,55.4c12.3,0,23.6-4,32.8-10.8l26,26c1.6,1.6,3.8,2.5,5.9,2.5c2.1,0,4.3-0.8,5.9-2.5
				C193.8,192.4,193.8,187.1,190.5,183.8z M119.9,166.8c-23,0-41.8-18.7-41.8-41.8s18.7-41.8,41.8-41.8c23,0,41.8,18.7,41.8,41.8
				C161.7,148,142.9,166.8,119.9,166.8z"/>
			<path id="Shape_1_" d="M46.6,126.4c0-39.6,31.9-71.7,71.3-71.7c24.1,0,45.4,12,58.3,30.5V15.6c0-7.2-5.8-13.1-13-13.1H27.2
				c-7.2,0-13,5.8-13,13.1V185c0,7.2,5.8,13.1,13,13.1h90.7C78.5,198.1,46.6,166,46.6,126.4z M40.1,28.6c0-3.6,2.9-6.5,6.5-6.5h97.2
				c3.6,0,6.5,2.9,6.5,6.5c0,3.6-2.9,6.5-6.5,6.5H46.6C43,35.1,40.1,32.2,40.1,28.6z"/>
		</g>
	</g>
</g>
</svg>
