<?xml version="1.0" encoding="utf-8"?>
<!-- Generator: Adobe Illustrator 22.0.1, SVG Export Plug-In . SVG Version: 6.00 Build 0)  -->
<svg version="1.1" id="图层_1" xmlns="http://www.w3.org/2000/svg" xmlns:xlink="http://www.w3.org/1999/xlink" x="0px" y="0px"
	 viewBox="0 0 200 200" style="enable-background:new 0 0 200 200;" xml:space="preserve">
<title>公告管理</title>
<desc>Created with Sketch.</desc>
<title>议题收集</title>
<desc>Created with Sketch.</desc>
<title>办公</title>
<desc>Created with Sketch.</desc>
<g>
	<circle cx="101.2" cy="39.2" r="4.7"/>
	<path d="M183.9,87.7c0-46.6-37.8-84.3-84.3-84.3S15.3,41.1,15.3,87.7c0,32.4,18.3,60.5,45.1,74.7l-11,7.4c-0.7,0.4-1.1,1-1.5,1.7
		c-0.2,0.4-0.4,0.8-0.5,1.2c0,0,0,0.1,0,0.1c-0.2,0.8-0.3,1.6-0.1,2.4l4.9,18.1c0.4,1.5,1.5,2.6,2.9,3.1c0.7,0.4,1.5,0.7,2.3,0.7
		h84.3c0.2,0,0.4-0.1,0.5-0.1c2.2,0,4.3-1.4,4.9-3.5l5.3-18.5c0-0.1,0-0.3,0-0.4c0-0.2,0-0.3,0-0.5c0-0.4,0.1-0.8,0-1.2
		c-0.2-1.2-0.8-2.4-1.9-3.2l-11.1-7.8C166,147.7,183.9,119.8,183.9,87.7z M99.6,12.7c41.4,0,75,33.6,75,75h-40.7
		c-0.5-18.5-15.6-33.4-34.3-33.4c-18.6,0-33.7,14.9-34.3,33.4H24.6C24.6,46.3,58.2,12.7,99.6,12.7z M102.7,101.7
		c0,0.9-0.7,1.6-1.6,1.6H98c-0.9,0-1.6-0.7-1.6-1.6c0-0.9,0.7-1.6,1.6-1.6h3.1C102,100.2,102.7,100.9,102.7,101.7z M92.3,97.8
		l-1.6,2.7C86.7,97.7,84,93,84,87.7c0-1.1,0.1-2.1,0.3-3.1h3.3c-0.3,1-0.4,2-0.4,3.1C87.1,91.8,89.2,95.5,92.3,97.8z M99.6,162.6
		c-40.4,0-73.2-31.9-74.8-71.9h40.7c1.1,18,15.9,32.2,34.1,32.2c18.2,0,33-14.3,34.1-32.2h40.7C172.8,130.7,139.9,162.6,99.6,162.6z
		"/>
</g>
</svg>
