<?xml version="1.0" encoding="utf-8"?>
<!-- Generator: Adobe Illustrator 22.0.1, SVG Export Plug-In . SVG Version: 6.00 Build 0)  -->
<svg version="1.1" id="图层_1" xmlns="http://www.w3.org/2000/svg" xmlns:xlink="http://www.w3.org/1999/xlink" x="0px" y="0px"
	 viewBox="0 0 200 200" style="enable-background:new 0 0 200 200;" xml:space="preserve">
<title>公告管理</title>
<desc>Created with Sketch.</desc>
<title>议题收集</title>
<desc>Created with Sketch.</desc>
<title>办公</title>
<desc>Created with Sketch.</desc>
<path d="M159.9,162.5c-5.4,0-9.8,4.5-9.8,10.3c0,5.4,4.5,10.3,9.8,10.3s9.8-4.5,9.8-10.3C170.1,167.4,165.7,162.5,159.9,162.5z"/>
<path d="M159.9,146c-26.3,0-40.2,26.8-40.2,26.8s10.3,26.8,40.2,26.8c27.2,0,40.2-26.8,40.2-26.8S186.6,146,159.9,146z M159.9,189.7
	c-9.8,0-16.5-7.1-16.5-17c0-9.4,7.1-16.5,16.5-16.5c9.8,0,16.5,7.1,16.5,16.5C176.8,182.1,169.7,189.7,159.9,189.7z"/>
<g>
	<path d="M93.1,1.5c-9.4,0-16,6.4-16,15.6v137.2h32V17.1C109.2,7.9,102.6,1.5,93.1,1.5z"/>
	<path d="M37.1,30.1c-9.4,0-16,6.6-16,16v108.2h32V46.1C53.1,36.6,46.5,30.1,37.1,30.1z"/>
	<path d="M149.2,48.1c-9.4,0-16,6.6-16,16v86.5l6.7-3.9c6.3-3.6,13-5.5,19.9-5.5c0.1,0,0.2,0,0.3,0c0.2,0,0.3,0,0.5,0l4.6,0.1V64.1
		C165.2,54.7,158.7,48.1,149.2,48.1z"/>
</g>
<path d="M12.5,161.3c-6.9,0-11.5,4.6-11.5,11.5c0,6.9,4.6,11.5,11.5,11.5h109.3c-5.3-6.5-7.5-12.2-7.5-12.2s2.6-4.9,7.6-10.8H12.5z"
	/>
</svg>
