<?xml version="1.0" encoding="utf-8"?>
<!-- Generator: Adobe Illustrator 22.0.1, SVG Export Plug-In . SVG Version: 6.00 Build 0)  -->
<svg version="1.1" id="图层_1" xmlns="http://www.w3.org/2000/svg" xmlns:xlink="http://www.w3.org/1999/xlink" x="0px" y="0px"
	 viewBox="0 0 200 200" style="enable-background:new 0 0 200 200;" xml:space="preserve">
<title>公告管理</title>
<desc>Created with Sketch.</desc>
<title>议题收集</title>
<desc>Created with Sketch.</desc>
<title>办公</title>
<desc>Created with Sketch.</desc>
<g id="首页-修改1.2-copy-4" transform="translate(-291.000000, -176.000000)">
	<g id="工作网盘" transform="translate(291.000000, 176.000000)">
		<path id="Shape_1_" d="M79.6,146.4H33.2c-2.8,0-4.6,1.9-4.6,4.8s1.9,4.8,4.6,4.8h46.4c2.8,0,4.6-1.9,4.6-4.8
			S82.4,146.4,79.6,146.4z M164.8,139.7c-6.6,0-12.4,5.3-12.4,11.4s5.8,11.4,12.4,11.4s12.4-5.3,12.4-11.4S171.4,139.7,164.8,139.7z
			"/>
		<path d="M198.2,134.8l-1-3l-21.8-94.1c-2.7-15.5-14.5-26.6-25.5-26.6H50c-10.9,0-22.7,11.1-26.4,25.5L1.8,130.7v3.3
			C0.9,139.6,0,144,0,149.5c0,21,14.5,38.8,31.8,38.8h136.4c17.3,0,31.8-17.7,31.8-38.8C200,144,199.6,139.8,198.2,134.8z
			 M76.8,75.1c-0.7-3.5,1.2-7.4,4.5-9.8c3.2-2.4,7.2-2.8,10.3-0.9c3.8-6.4,11-9.2,17.5-6.6c6.8,2.6,11.8,9.8,11.4,16.9
			c4.9,0.1,9.7,3.8,10.7,8.2c1.1,4.6-2.6,8.2-8.3,8.2H77c-5,0-8.6-2.9-8.5-6.9C68.8,80.3,72.3,76.4,76.8,75.1z M168.2,177.2H31.8
			c-12.7,0-22.7-11.4-22.7-25.9c0-2.1,0-3.1,0.9-5.2v-1c1.8-11.4,10.9-19.7,21.8-19.7h136.4c10.9,0,20,8.3,21.8,20.7
			c0,2.1,0.9,3.1,0.9,5.2C190.9,165.8,180.9,177.2,168.2,177.2z"/>
	</g>
</g>
</svg>
