<?xml version="1.0" encoding="utf-8"?>
<!-- Generator: Adobe Illustrator 22.0.1, SVG Export Plug-In . SVG Version: 6.00 Build 0)  -->
<svg version="1.1" id="图层_1" xmlns="http://www.w3.org/2000/svg" xmlns:xlink="http://www.w3.org/1999/xlink" x="0px" y="0px"
	 viewBox="0 0 200 200" style="enable-background:new 0 0 200 200;" xml:space="preserve">
<title>公告管理</title>
<desc>Created with Sketch.</desc>
<title>议题收集</title>
<desc>Created with Sketch.</desc>
<title>办公</title>
<desc>Created with Sketch.</desc>
<title>导航检察课堂-党建制度</title>
<desc>Created with Sketch.</desc>
<g>
	<path d="M100,4.3C47,4.3,4,47.3,4,100c0,52.8,43.1,95.7,96,95.7c25.7,0,49.8-9.9,67.9-28c1.8-1.8,1.8-4.7,0-6.4
		c-1.8-1.8-4.7-1.8-6.4,0c-16.4,16.4-38.3,25.4-61.5,25.4c-47.9,0-86.9-38.8-86.9-86.6s39-86.6,86.9-86.6c25.8,0,50,11.3,66.6,31
		c1.6,1.9,4.5,2.2,6.4,0.5c1.9-1.6,2.2-4.5,0.6-6.4C155.3,16.8,128.5,4.3,100,4.3z"/>
	<path d="M193.9,77.9c-1.4-6.6-3.6-13.1-6.4-19.3c-1-2.3-3.8-3.3-6-2.3c-2.3,1-3.3,3.7-2.3,6c2.5,5.6,4.5,11.4,5.8,17.4
		c1.3,6.1,2,12.3,2,18.5c0,12.3-2.5,24.2-7.5,35.4c-1,2.3,0,5,2.3,6c0.6,0.3,1.2,0.4,1.9,0.4c1.7,0,3.4-1,4.2-2.7
		c5.5-12.3,8.3-25.5,8.3-39.1C196,91.5,195.3,84.6,193.9,77.9z"/>
	<ellipse cx="99.6" cy="99.7" rx="63.8" ry="63.5"/>
</g>
</svg>
